<svg xmlns="http://www.w3.org/2000/svg" viewBox="0 0 424 32"><defs><style>.cls-1{fill:#208020;}.cls-2{fill:#fff;}</style></defs><g id="Layer_2" data-name="Layer 2"><g id="TEXT"><rect class="cls-1" width="424" height="32" rx="8"/><path class="cls-2" d="M176.54,17.51v6.25h-3.13V8.12h5.41A6.43,6.43,0,0,1,183,9.34a4.1,4.1,0,0,1,1.51,3.4,3.43,3.43,0,0,1-.63,2.07A4.45,4.45,0,0,1,182,16.23a3.37,3.37,0,0,1,2,1.36,4.31,4.31,0,0,1,.61,2.37V21.1a5.55,5.55,0,0,0,.18,1.37,1.92,1.92,0,0,0,.6,1.06v.23h-3.23a1.76,1.76,0,0,1-.55-1.14,10.33,10.33,0,0,1-.13-1.54V20a2.5,2.5,0,0,0-.63-1.82,2.4,2.4,0,0,0-1.81-.65Zm0-2.42h2.23a2.94,2.94,0,0,0,2-.56,2.06,2.06,0,0,0,.65-1.65,2.28,2.28,0,0,0-.65-1.71,2.65,2.65,0,0,0-1.91-.64h-2.28Z"/><path class="cls-2" d="M192,24A5.22,5.22,0,0,1,188,22.39a5.83,5.83,0,0,1-1.46-4.11v-.43a6.4,6.4,0,0,1,1.41-4.28,4.82,4.82,0,0,1,3.9-1.65,4.54,4.54,0,0,1,3.6,1.43,5.72,5.72,0,0,1,1.25,3.87v1.62h-6.93l0,.06a3.18,3.18,0,0,0,.72,1.94,2.46,2.46,0,0,0,1.93.74,6.21,6.21,0,0,0,1.79-.22,7.24,7.24,0,0,0,1.52-.65l.85,1.93a6,6,0,0,1-1.89,1A8.64,8.64,0,0,1,192,24Zm-.21-9.64a1.71,1.71,0,0,0-1.45.65,3.24,3.24,0,0,0-.62,1.72l0,.05h3.83v-.23a2.72,2.72,0,0,0-.42-1.61A1.55,1.55,0,0,0,191.82,14.34Z"/><path class="cls-2" d="M201.48,12.13l.14,1.67A4.28,4.28,0,0,1,203,12.41a3.72,3.72,0,0,1,1.91-.49,3.48,3.48,0,0,1,2.75,1.13,5.44,5.44,0,0,1,1,3.59v7.12h-3.14V16.65a2.8,2.8,0,0,0-.44-1.77,1.58,1.58,0,0,0-1.3-.52,2.79,2.79,0,0,0-1.23.26,2.41,2.41,0,0,0-.88.73v8.41h-3.14V12.13Z"/><path class="cls-2" d="M217.83,23.76a7.55,7.55,0,0,1-.29-.84,6.52,6.52,0,0,1-.18-.9,4.29,4.29,0,0,1-1.28,1.4,3.15,3.15,0,0,1-1.89.56,3.91,3.91,0,0,1-2.81-.94,3.35,3.35,0,0,1-1-2.56,3.07,3.07,0,0,1,1.32-2.65,6.59,6.59,0,0,1,3.84-.94h1.76V16a1.83,1.83,0,0,0-.44-1.3,1.73,1.73,0,0,0-1.31-.46,1.7,1.7,0,0,0-1.18.37,1.3,1.3,0,0,0-.41,1h-3l0-.06A3,3,0,0,1,212.21,13a5.6,5.6,0,0,1,3.55-1.07A5.2,5.2,0,0,1,219.15,13a3.68,3.68,0,0,1,1.3,3v4.8a9.34,9.34,0,0,0,.12,1.54,7.41,7.41,0,0,0,.39,1.43ZM215,21.66a2.62,2.62,0,0,0,1.46-.41,2.18,2.18,0,0,0,.88-.94V18.67h-1.76a2.08,2.08,0,0,0-1.51.49,1.62,1.62,0,0,0-.51,1.21,1.18,1.18,0,0,0,.38.94A1.48,1.48,0,0,0,215,21.66Z"/><path class="cls-2" d="M225.7,12.13l.13,1.54a3.83,3.83,0,0,1,1.4-1.29,4,4,0,0,1,2-.46,3.52,3.52,0,0,1,1.91.49,3.11,3.11,0,0,1,1.21,1.5,3.91,3.91,0,0,1,1.39-1.46,3.83,3.83,0,0,1,2-.53,3.31,3.31,0,0,1,2.71,1.22,5.76,5.76,0,0,1,1,3.72v6.9h-3.14V16.85a3.21,3.21,0,0,0-.43-1.94,1.5,1.5,0,0,0-1.28-.55,2.23,2.23,0,0,0-1.15.29,2.08,2.08,0,0,0-.78.83c0,.13,0,.25,0,.34s0,.2,0,.3v7.64h-3.12V16.85a3.33,3.33,0,0,0-.43-1.93,1.54,1.54,0,0,0-1.29-.56,2.39,2.39,0,0,0-1.11.24,2.08,2.08,0,0,0-.79.68v8.48h-3.13V12.13Z"/><path class="cls-2" d="M246.77,24a5.24,5.24,0,0,1-4.06-1.59,5.87,5.87,0,0,1-1.46-4.11v-.43a6.35,6.35,0,0,1,1.42-4.28,4.8,4.8,0,0,1,3.9-1.65,4.53,4.53,0,0,1,3.59,1.43,5.72,5.72,0,0,1,1.25,3.87v1.62h-6.93l0,.06a3.18,3.18,0,0,0,.72,1.94,2.46,2.46,0,0,0,1.93.74,6.21,6.21,0,0,0,1.79-.22,7.24,7.24,0,0,0,1.52-.65l.85,1.93a6,6,0,0,1-1.89,1A8.64,8.64,0,0,1,246.77,24Zm-.2-9.64a1.73,1.73,0,0,0-1.46.65,3.24,3.24,0,0,0-.62,1.72l0,.05h3.83v-.23a2.72,2.72,0,0,0-.42-1.61A1.55,1.55,0,0,0,246.57,14.34Z"/></g></g></svg>