<svg xmlns="http://www.w3.org/2000/svg" viewBox="0 0 272 32"><defs><style>.cls-1{fill:#24488f;}.cls-2{fill:#fff;}</style></defs><g id="Layer_2" data-name="Layer 2"><g id="TEXT"><rect class="cls-1" width="272" height="32" rx="8"/><path class="cls-2" d="M104.12,23.76V8.12h5.12a7.44,7.44,0,0,1,4.31,1.08,3.66,3.66,0,0,1,1.55,3.2,3.46,3.46,0,0,1-.56,1.93,3.39,3.39,0,0,1-1.63,1.27,3.42,3.42,0,0,1,2.2,1.27,3.85,3.85,0,0,1,.74,2.33,4,4,0,0,1-1.48,3.4,6.71,6.71,0,0,1-4.2,1.16Zm3.14-9.09h2.09a3.08,3.08,0,0,0,1.93-.52,1.74,1.74,0,0,0,.68-1.5,1.89,1.89,0,0,0-.68-1.6,3.39,3.39,0,0,0-2-.52h-2Zm0,2.17v4.51h2.91a2.93,2.93,0,0,0,1.9-.54,2,2,0,0,0,.65-1.61,2.3,2.3,0,0,0-.64-1.75,2.72,2.72,0,0,0-1.94-.61Z"/><path class="cls-2" d="M124,14.83l-1.15,0a2.11,2.11,0,0,0-1.15.29,1.81,1.81,0,0,0-.69.82v7.85h-3.12V12.13h2.91l.14,1.72A3.64,3.64,0,0,1,122,12.43a2.34,2.34,0,0,1,1.49-.51,2,2,0,0,1,.44,0,2.88,2.88,0,0,1,.4.09Z"/><path class="cls-2" d="M125,17.84a6.24,6.24,0,0,1,1.45-4.26,5,5,0,0,1,4-1.66,5.1,5.1,0,0,1,4,1.65A6.21,6.21,0,0,1,136,17.84v.22a6.2,6.2,0,0,1-1.46,4.27,5.75,5.75,0,0,1-8.06,0A6.19,6.19,0,0,1,125,18.06Zm3.12.22a5.11,5.11,0,0,0,.56,2.56,1.94,1.94,0,0,0,1.81,1,1.9,1.9,0,0,0,1.77-1,5,5,0,0,0,.57-2.55v-.22a5,5,0,0,0-.57-2.53,1.92,1.92,0,0,0-1.79-1,1.89,1.89,0,0,0-1.78,1,5,5,0,0,0-.57,2.52Z"/><path class="cls-2" d="M147.6,19.44h.06l1.41-7.31h3.05l-3,11.63h-2.63l-2.15-6.71h-.07l-2.16,6.71h-2.61l-3-11.63h3.05l1.43,7.28h.06l2.17-7.28h2.1Z"/><path class="cls-2" d="M159.62,20.54a1.09,1.09,0,0,0-.5-.89,5.06,5.06,0,0,0-1.85-.65,7.23,7.23,0,0,1-3.1-1.24,2.68,2.68,0,0,1-1.06-2.24A3.19,3.19,0,0,1,154.38,13a5.11,5.11,0,0,1,3.37-1.05A5.52,5.52,0,0,1,161.28,13a3.08,3.08,0,0,1,1.27,2.62l0,.07h-3a1.51,1.51,0,0,0-.45-1.14,1.79,1.79,0,0,0-1.3-.44,1.72,1.72,0,0,0-1.19.38,1.16,1.16,0,0,0-.44.92,1,1,0,0,0,.45.87,5.1,5.1,0,0,0,1.86.61,7.67,7.67,0,0,1,3.18,1.26,2.78,2.78,0,0,1,1,2.3A3.06,3.06,0,0,1,161.32,23a5.79,5.79,0,0,1-3.55,1,5.43,5.43,0,0,1-3.67-1.17,3.33,3.33,0,0,1-1.28-2.68l0-.07h2.87a1.65,1.65,0,0,0,.61,1.36,2.53,2.53,0,0,0,1.52.41,2.14,2.14,0,0,0,1.32-.34A1.13,1.13,0,0,0,159.62,20.54Z"/><path class="cls-2" d="M169.55,24a5.25,5.25,0,0,1-4.06-1.59A5.87,5.87,0,0,1,164,18.28v-.43a6.35,6.35,0,0,1,1.42-4.28,4.81,4.81,0,0,1,3.9-1.65,4.52,4.52,0,0,1,3.59,1.43,5.67,5.67,0,0,1,1.25,3.87v1.62h-6.92l0,.06a3.12,3.12,0,0,0,.73,1.94,2.43,2.43,0,0,0,1.93.74,6.25,6.25,0,0,0,1.79-.22,7.17,7.17,0,0,0,1.51-.65l.85,1.93a5.75,5.75,0,0,1-1.89,1A8.6,8.6,0,0,1,169.55,24Zm-.2-9.64a1.73,1.73,0,0,0-1.46.65,3.24,3.24,0,0,0-.61,1.72l0,.05h3.82v-.23a2.72,2.72,0,0,0-.42-1.61A1.55,1.55,0,0,0,169.35,14.34Z"/><path class="cls-2" d="M179.46,23.76h-3.13V21h3.13Z"/><path class="cls-2" d="M185.66,23.76h-3.13V21h3.13Z"/><path class="cls-2" d="M191.87,23.76h-3.14V21h3.14Z"/><path class="cls-2" d="M86.3,12l1.42,1.41a2,2,0,0,0,1.41.59h5v6h-12V12H86.3m.83-2h-7V22h16V12h-7l-2-2Z"/></g></g></svg>