<svg xmlns="http://www.w3.org/2000/svg" viewBox="0 0 272 32"><defs><style>.cls-1{fill:#24488f;}.cls-2{fill:#fff;}</style></defs><g id="Layer_2" data-name="Layer 2"><g id="TEXT"><rect class="cls-1" width="272" height="32" rx="8"/><path class="cls-2" d="M128.58,23.76h-3.13l-6.31-10.55h-.06V23.76h-3.14V8.12h3.14l6.3,10.54.07,0V8.12h3.13Z"/><path class="cls-2" d="M136.26,24a5.25,5.25,0,0,1-4.06-1.59,5.87,5.87,0,0,1-1.46-4.11v-.43a6.35,6.35,0,0,1,1.42-4.28,4.82,4.82,0,0,1,3.9-1.65,4.52,4.52,0,0,1,3.59,1.43,5.67,5.67,0,0,1,1.25,3.87v1.62H134l0,.06a3.18,3.18,0,0,0,.73,1.94,2.43,2.43,0,0,0,1.93.74,6.25,6.25,0,0,0,1.79-.22,7.46,7.46,0,0,0,1.52-.65l.84,1.93a5.75,5.75,0,0,1-1.89,1A8.6,8.6,0,0,1,136.26,24Zm-.2-9.64a1.73,1.73,0,0,0-1.46.65,3.24,3.24,0,0,0-.61,1.72l0,.05h3.82v-.23a2.72,2.72,0,0,0-.42-1.61A1.55,1.55,0,0,0,136.06,14.34Z"/><path class="cls-2" d="M152.62,19.44h.07l1.4-7.31h3.06l-3,11.63h-2.62l-2.16-6.71h-.06l-2.16,6.71h-2.61l-3-11.63h3l1.43,7.28h.07l2.17-7.28h2.09Z"/></g></g></svg>