<svg xmlns="http://www.w3.org/2000/svg" viewBox="0 0 204 32"><defs><style>.cls-1{fill:#30303c;}.cls-2{fill:#48485a;}</style></defs><g id="Layer_2" data-name="Layer 2"><g id="TEXT"><path class="cls-1" d="M7.85,0A8,8,0,0,0,0,8V24a8,8,0,0,0,7.85,8H196a8,8,0,0,0,8-8V8a8,8,0,0,0-8-8Z"/><path class="cls-2" d="M73.56,23.72a1,1,0,0,0,0-1.42L68.26,17H79.87a1,1,0,0,0,0-2H68.26l5.3-5.3a1,1,0,1,0-1.41-1.42l-7,7a1,1,0,0,0-.21.33.94.94,0,0,0,0,.76,1,1,0,0,0,.21.33l7,7A1,1,0,0,0,73.56,23.72Z"/><path class="cls-2" d="M101.41,8.12V18.35a5.13,5.13,0,0,1-1.75,4.14,7.63,7.63,0,0,1-9.06,0,5.14,5.14,0,0,1-1.73-4.14V8.12H92V18.35a3.22,3.22,0,0,0,.84,2.4,3.11,3.11,0,0,0,2.27.83,3.16,3.16,0,0,0,2.3-.83,3.22,3.22,0,0,0,.85-2.4V8.12Z"/><path class="cls-2" d="M106.79,12.13l.14,1.67a4.31,4.31,0,0,1,1.43-1.39,3.71,3.71,0,0,1,1.9-.49A3.47,3.47,0,0,1,113,13.05a5.38,5.38,0,0,1,1,3.59v7.12h-3.15V16.65a2.8,2.8,0,0,0-.43-1.77,1.61,1.61,0,0,0-1.31-.52,2.85,2.85,0,0,0-1.23.26,2.47,2.47,0,0,0-.87.73v8.41h-3.14V12.13Z"/><path class="cls-2" d="M115.83,18A7.54,7.54,0,0,1,117,13.61a3.85,3.85,0,0,1,3.35-1.69,3.17,3.17,0,0,1,1.57.38,3.73,3.73,0,0,1,1.22,1.07V7h3.15V23.76h-2.68l-.27-1.43a3.71,3.71,0,0,1-1.3,1.23,3.44,3.44,0,0,1-1.71.42A3.94,3.94,0,0,1,117,22.42a6.72,6.72,0,0,1-1.19-4.15Zm3.13.23a4.65,4.65,0,0,0,.52,2.4,1.79,1.79,0,0,0,1.67.87,2.45,2.45,0,0,0,1.18-.27,2.12,2.12,0,0,0,.83-.8V15.52a2.42,2.42,0,0,0-.82-.86,2.21,2.21,0,0,0-1.17-.3,1.78,1.78,0,0,0-1.68,1A5.82,5.82,0,0,0,119,18Z"/><path class="cls-2" d="M128.18,17.84a6.28,6.28,0,0,1,1.45-4.26,5.06,5.06,0,0,1,4-1.66,5.11,5.11,0,0,1,4,1.65,6.25,6.25,0,0,1,1.46,4.27v.22a6.19,6.19,0,0,1-1.45,4.27,5.75,5.75,0,0,1-8.06,0,6.2,6.2,0,0,1-1.46-4.27Zm3.13.22a5.14,5.14,0,0,0,.56,2.56,2.14,2.14,0,0,0,3.58,0,5,5,0,0,0,.57-2.55v-.22a5,5,0,0,0-.57-2.53,1.93,1.93,0,0,0-1.8-1,1.9,1.9,0,0,0-1.78,1,5.06,5.06,0,0,0-.56,2.52Z"/></g></g></svg>