<svg xmlns="http://www.w3.org/2000/svg" viewBox="0 0 144 32"><defs><style>.cls-1{fill:#3060bf;}.cls-2{fill:#fff;}</style></defs><g id="Layer_2" data-name="Layer 2"><g id="TEXT"><rect class="cls-1" width="144" height="32" rx="8"/><path class="cls-2" d="M45.56,19.68a1.81,1.81,0,0,0-.63-1.45,6.4,6.4,0,0,0-2.21-1,12.52,12.52,0,0,1-4.11-1.92,3.65,3.65,0,0,1-1.4-3,3.8,3.8,0,0,1,1.58-3.14,6.4,6.4,0,0,1,4-1.22A6.38,6.38,0,0,1,47,9.2a4.09,4.09,0,0,1,1.53,3.44l0,.06h-3a2.29,2.29,0,0,0-.71-1.8,2.93,2.93,0,0,0-2-.62,2.63,2.63,0,0,0-1.79.55,1.84,1.84,0,0,0-.63,1.43A1.58,1.58,0,0,0,41,13.57a9.21,9.21,0,0,0,2.38,1.08,10.14,10.14,0,0,1,3.93,1.91,3.89,3.89,0,0,1,1.35,3.09,3.72,3.72,0,0,1-1.57,3.17A6.73,6.73,0,0,1,43,24a7.49,7.49,0,0,1-4.34-1.25A4.15,4.15,0,0,1,36.89,19l0-.07h3a2.45,2.45,0,0,0,.81,2,3.45,3.45,0,0,0,2.22.66,3,3,0,0,0,1.91-.53A1.68,1.68,0,0,0,45.56,19.68Z"/><path class="cls-2" d="M57.68,23.76a7.55,7.55,0,0,1-.29-.84,5.31,5.31,0,0,1-.18-.9,4.29,4.29,0,0,1-1.28,1.4A3.15,3.15,0,0,1,54,24,3.9,3.9,0,0,1,51.23,23a3.35,3.35,0,0,1-1-2.56,3.08,3.08,0,0,1,1.31-2.65,6.63,6.63,0,0,1,3.84-.94h1.77V16a1.83,1.83,0,0,0-.44-1.3,1.73,1.73,0,0,0-1.31-.46,1.7,1.7,0,0,0-1.18.37,1.27,1.27,0,0,0-.41,1h-3l0-.06A2.93,2.93,0,0,1,52.06,13a5.6,5.6,0,0,1,3.55-1.07A5.2,5.2,0,0,1,59,13a3.67,3.67,0,0,1,1.29,3v4.8a8.34,8.34,0,0,0,.13,1.54,7.41,7.41,0,0,0,.39,1.43Zm-2.87-2.1a2.63,2.63,0,0,0,1.47-.41,2.18,2.18,0,0,0,.88-.94V18.67H55.39a2.07,2.07,0,0,0-1.5.49,1.62,1.62,0,0,0-.51,1.21,1.18,1.18,0,0,0,.38.94A1.45,1.45,0,0,0,54.81,21.66Z"/><path class="cls-2" d="M66.39,19.43l.21,1.07h.06l.22-1.07,1.91-7.3h3.27l-4,11.63h-3l-4-11.63h3.28Z"/><path class="cls-2" d="M78,24a5.26,5.26,0,0,1-4.07-1.59,5.87,5.87,0,0,1-1.46-4.11v-.43a6.41,6.41,0,0,1,1.42-4.28,4.82,4.82,0,0,1,3.9-1.65,4.52,4.52,0,0,1,3.59,1.43,5.67,5.67,0,0,1,1.26,3.87v1.62H75.72l0,.06a3.18,3.18,0,0,0,.73,1.94,2.44,2.44,0,0,0,1.93.74,6.21,6.21,0,0,0,1.79-.22,7.46,7.46,0,0,0,1.52-.65l.85,1.93a5.91,5.91,0,0,1-1.9,1A8.58,8.58,0,0,1,78,24Zm-.21-9.64a1.71,1.71,0,0,0-1.45.65,3.24,3.24,0,0,0-.62,1.72l0,.05h3.82v-.23a2.72,2.72,0,0,0-.42-1.61A1.53,1.53,0,0,0,77.8,14.34Z"/><path class="cls-2" d="M98.34,20.38H93.27l-1,3.38H88.94L94.22,8.12h3.21l5.25,15.64H99.4ZM94,17.92h3.54l-1.73-5.51h-.07Z"/><path class="cls-2" d="M110.24,20.54a1.09,1.09,0,0,0-.5-.89,5.06,5.06,0,0,0-1.85-.65,7.23,7.23,0,0,1-3.1-1.24,2.68,2.68,0,0,1-1.06-2.24A3.19,3.19,0,0,1,105,13a5.11,5.11,0,0,1,3.37-1.05A5.54,5.54,0,0,1,111.9,13a3.08,3.08,0,0,1,1.27,2.62l0,.07h-3a1.51,1.51,0,0,0-.45-1.14,1.81,1.81,0,0,0-1.3-.44,1.72,1.72,0,0,0-1.19.38,1.14,1.14,0,0,0-.44.92,1,1,0,0,0,.45.87,5.1,5.1,0,0,0,1.86.61,7.67,7.67,0,0,1,3.18,1.26,2.78,2.78,0,0,1,1,2.3A3.06,3.06,0,0,1,111.94,23a5.79,5.79,0,0,1-3.55,1,5.41,5.41,0,0,1-3.67-1.17,3.3,3.3,0,0,1-1.28-2.68l0-.07h2.87a1.62,1.62,0,0,0,.61,1.36,2.53,2.53,0,0,0,1.52.41,2.14,2.14,0,0,0,1.32-.34A1.13,1.13,0,0,0,110.24,20.54Z"/><path class="cls-2" d="M118.71,23.76h-3.14V21h3.14Z"/><path class="cls-2" d="M124.91,23.76h-3.13V21h3.13Z"/><path class="cls-2" d="M131.11,23.76H128V21h3.13Z"/><path class="cls-2" d="M19.06,12l1.41,1.41a2,2,0,0,0,1.42.59h5v6h-12V12h4.17m.83-2h-7V22h16V12h-7l-2-2Z"/></g></g></svg>