<svg xmlns="http://www.w3.org/2000/svg" viewBox="0 0 112 32"><defs><style>.cls-1{fill:#3060bf;}.cls-2{fill:#fff;}</style></defs><g id="Layer_2" data-name="Layer 2"><g id="TEXT"><rect class="cls-1" width="112" height="32" rx="8"/><path class="cls-2" d="M41.94,19.68a1.81,1.81,0,0,0-.63-1.45,6.31,6.31,0,0,0-2.21-1A12.36,12.36,0,0,1,35,15.27a3.63,3.63,0,0,1-1.41-3,3.8,3.8,0,0,1,1.58-3.14,6.42,6.42,0,0,1,4-1.22A6.36,6.36,0,0,1,43.38,9.2a4.12,4.12,0,0,1,1.54,3.44l0,.06h-3a2.26,2.26,0,0,0-.71-1.8,2.92,2.92,0,0,0-2-.62,2.65,2.65,0,0,0-1.8.55,1.84,1.84,0,0,0-.63,1.43,1.57,1.57,0,0,0,.69,1.31,9.28,9.28,0,0,0,2.37,1.08,10.28,10.28,0,0,1,3.93,1.9,3.93,3.93,0,0,1,1.36,3.1,3.74,3.74,0,0,1-1.57,3.17A6.78,6.78,0,0,1,39.36,24,7.44,7.44,0,0,1,35,22.73,4.14,4.14,0,0,1,33.27,19l0-.07h3a2.43,2.43,0,0,0,.82,2,3.41,3.41,0,0,0,2.21.66,3,3,0,0,0,1.92-.53A1.7,1.7,0,0,0,41.94,19.68Z"/><path class="cls-2" d="M54.07,23.76a6,6,0,0,1-.3-.84,6.52,6.52,0,0,1-.18-.9,4.26,4.26,0,0,1-1.27,1.4,3.16,3.16,0,0,1-1.9.56A3.91,3.91,0,0,1,47.61,23a3.35,3.35,0,0,1-1-2.56,3.07,3.07,0,0,1,1.32-2.65,6.63,6.63,0,0,1,3.84-.94h1.76V16a1.83,1.83,0,0,0-.44-1.3,2.08,2.08,0,0,0-2.49-.09,1.3,1.3,0,0,0-.41,1h-3l0-.06A3,3,0,0,1,48.44,13,5.6,5.6,0,0,1,52,11.92,5.2,5.2,0,0,1,55.38,13a3.65,3.65,0,0,1,1.3,3v4.8a9.34,9.34,0,0,0,.12,1.54,7.41,7.41,0,0,0,.39,1.43Zm-2.87-2.1a2.62,2.62,0,0,0,1.46-.41,2.18,2.18,0,0,0,.88-.94V18.67H51.78a2.08,2.08,0,0,0-1.51.49,1.62,1.62,0,0,0-.51,1.21,1.21,1.21,0,0,0,.38.94A1.48,1.48,0,0,0,51.2,21.66Z"/><path class="cls-2" d="M62.78,19.43,63,20.5H63l.22-1.07,1.91-7.3h3.28l-4,11.63h-3l-4-11.63h3.28Z"/><path class="cls-2" d="M74.39,24a5.24,5.24,0,0,1-4.06-1.59,5.83,5.83,0,0,1-1.46-4.11v-.43a6.35,6.35,0,0,1,1.42-4.28,4.79,4.79,0,0,1,3.89-1.65,4.54,4.54,0,0,1,3.6,1.43A5.72,5.72,0,0,1,79,17.22v1.62H72.1l0,.06a3.18,3.18,0,0,0,.72,1.94,2.46,2.46,0,0,0,1.93.74,6.21,6.21,0,0,0,1.79-.22A7.24,7.24,0,0,0,78,20.71l.85,1.93a6,6,0,0,1-1.89,1A8.64,8.64,0,0,1,74.39,24Zm-.21-9.64a1.71,1.71,0,0,0-1.45.65,3.24,3.24,0,0,0-.62,1.72l0,.05H76v-.23a2.72,2.72,0,0,0-.42-1.61A1.55,1.55,0,0,0,74.18,14.34Z"/></g></g></svg>