<svg xmlns="http://www.w3.org/2000/svg" viewBox="0 0 272 32"><defs><style>.cls-1{fill:#24488f;}.cls-2{fill:#fff;}</style></defs><g id="Layer_2" data-name="Layer 2"><g id="TEXT"><rect class="cls-1" width="272" height="32" rx="8"/><path class="cls-2" d="M36,19.68a1.81,1.81,0,0,0-.63-1.45,6.4,6.4,0,0,0-2.21-1,12.32,12.32,0,0,1-4.11-1.92,3.65,3.65,0,0,1-1.4-3,3.77,3.77,0,0,1,1.58-3.14,6.4,6.4,0,0,1,4-1.22A6.38,6.38,0,0,1,37.48,9.2,4.09,4.09,0,0,1,39,12.64l0,.06H36a2.29,2.29,0,0,0-.71-1.8,2.93,2.93,0,0,0-2-.62,2.63,2.63,0,0,0-1.79.55,1.84,1.84,0,0,0-.63,1.43,1.56,1.56,0,0,0,.68,1.31,9.21,9.21,0,0,0,2.38,1.08,10.28,10.28,0,0,1,3.93,1.9,3.92,3.92,0,0,1,1.35,3.1,3.72,3.72,0,0,1-1.57,3.17A6.73,6.73,0,0,1,33.46,24a7.47,7.47,0,0,1-4.34-1.25A4.15,4.15,0,0,1,27.37,19l0-.07h3a2.45,2.45,0,0,0,.81,2,3.45,3.45,0,0,0,2.22.66,3,3,0,0,0,1.91-.53A1.68,1.68,0,0,0,36,19.68Z"/><path class="cls-2" d="M44.31,13.61a3.86,3.86,0,0,1,1.34-1.24,3.85,3.85,0,0,1,4.61.76,5.63,5.63,0,0,1,1,3.73v6.9H48.16V16.84a3.24,3.24,0,0,0-.43-1.92,1.57,1.57,0,0,0-1.31-.56,3.2,3.2,0,0,0-1.25.23,2.09,2.09,0,0,0-.86.66v8.51H41.17V7h3.14Z"/><path class="cls-2" d="M53.11,17.84a6.24,6.24,0,0,1,1.45-4.26,5,5,0,0,1,4-1.66,5.1,5.1,0,0,1,4,1.65,6.21,6.21,0,0,1,1.47,4.27v.22a6.2,6.2,0,0,1-1.46,4.27,5.75,5.75,0,0,1-8.06,0,6.19,6.19,0,0,1-1.45-4.27Zm3.12.22a5.14,5.14,0,0,0,.56,2.56,1.94,1.94,0,0,0,1.81,1,1.9,1.9,0,0,0,1.77-1,5,5,0,0,0,.57-2.55v-.22a5,5,0,0,0-.57-2.53,1.92,1.92,0,0,0-1.79-1,1.89,1.89,0,0,0-1.78,1,5,5,0,0,0-.57,2.52Z"/><path class="cls-2" d="M75.72,19.44h.06l1.41-7.31h3L77.29,23.76H74.66L72.5,17.05h-.06l-2.16,6.71H67.67l-3-11.63h3l1.43,7.28h.06l2.17-7.28h2.1Z"/><path class="cls-2" d="M82.87,25.1H79.82l5.73-17h3.06Z"/><path class="cls-2" d="M103.05,23.76H99.92v-6.5H93.55v6.5H90.41V8.12h3.14v6.72h6.37V8.12h3.13Z"/><path class="cls-2" d="M108.91,9.35h-3.14V7h3.14Zm0,14.41h-3.14V12.13h3.14Z"/><path class="cls-2" d="M110.94,18a7.54,7.54,0,0,1,1.19-4.43,3.85,3.85,0,0,1,3.35-1.69,3.17,3.17,0,0,1,1.57.38,3.73,3.73,0,0,1,1.22,1.07V7h3.15V23.76h-2.68l-.27-1.43a3.71,3.71,0,0,1-1.3,1.23,3.44,3.44,0,0,1-1.71.42,3.94,3.94,0,0,1-3.33-1.56,6.72,6.72,0,0,1-1.19-4.15Zm3.13.23a4.65,4.65,0,0,0,.52,2.4,1.79,1.79,0,0,0,1.67.87,2.45,2.45,0,0,0,1.18-.27,2.12,2.12,0,0,0,.83-.8V15.52a2.42,2.42,0,0,0-.82-.86,2.21,2.21,0,0,0-1.17-.3,1.78,1.78,0,0,0-1.68,1,5.82,5.82,0,0,0-.53,2.66Z"/><path class="cls-2" d="M128.85,24a5.24,5.24,0,0,1-4.06-1.59,5.87,5.87,0,0,1-1.46-4.11v-.43a6.35,6.35,0,0,1,1.42-4.28,4.8,4.8,0,0,1,3.9-1.65,4.52,4.52,0,0,1,3.59,1.43,5.67,5.67,0,0,1,1.25,3.87v1.62h-6.93l0,.06a3.12,3.12,0,0,0,.73,1.94,2.42,2.42,0,0,0,1.92.74,6.16,6.16,0,0,0,1.79-.22,7.24,7.24,0,0,0,1.52-.65l.85,1.93a5.75,5.75,0,0,1-1.89,1A8.6,8.6,0,0,1,128.85,24Zm-.2-9.64a1.73,1.73,0,0,0-1.46.65,3.33,3.33,0,0,0-.62,1.72l0,.05h3.82v-.23a2.72,2.72,0,0,0-.42-1.61A1.55,1.55,0,0,0,128.65,14.34Z"/><path class="cls-2" d="M152.76,18.58l0,.06a4.94,4.94,0,0,1-1.53,3.93A6.25,6.25,0,0,1,146.93,24a6,6,0,0,1-4.54-1.81,6.44,6.44,0,0,1-1.73-4.67V14.39a6.65,6.65,0,0,1,1.68-4.68,5.77,5.77,0,0,1,4.43-1.82,6.63,6.63,0,0,1,4.47,1.4,4.84,4.84,0,0,1,1.57,3.93l0,.06h-3.06A3.11,3.11,0,0,0,149,11a3,3,0,0,0-2.24-.73,2.55,2.55,0,0,0-2.2,1.13,5.07,5.07,0,0,0-.79,2.93V17.5a4.83,4.83,0,0,0,.84,2.94,2.69,2.69,0,0,0,2.31,1.14,2.75,2.75,0,0,0,2.1-.74,3.2,3.2,0,0,0,.69-2.26Z"/><path class="cls-2" d="M154.36,17.84a6.28,6.28,0,0,1,1.45-4.26,5.06,5.06,0,0,1,4-1.66,5.11,5.11,0,0,1,4,1.65,6.25,6.25,0,0,1,1.46,4.27v.22a6.19,6.19,0,0,1-1.45,4.27,5.75,5.75,0,0,1-8.06,0,6.2,6.2,0,0,1-1.46-4.27Zm3.13.22a5.14,5.14,0,0,0,.56,2.56,2.14,2.14,0,0,0,3.58,0,5,5,0,0,0,.56-2.55v-.22a5,5,0,0,0-.57-2.53,2.12,2.12,0,0,0-3.57,0,5.06,5.06,0,0,0-.56,2.52Z"/><path class="cls-2" d="M170.44,23.76H167.3V7h3.14Z"/><path class="cls-2" d="M180.05,22a4,4,0,0,1-1.37,1.44,3.66,3.66,0,0,1-1.92.5,3.53,3.53,0,0,1-2.87-1.24,6,6,0,0,1-1-3.87V12.13H176v6.76a3.79,3.79,0,0,0,.41,2.09,1.47,1.47,0,0,0,1.28.56A3.1,3.1,0,0,0,179,21.3a2.12,2.12,0,0,0,.88-.71V12.13H183V23.76h-2.6Z"/><path class="cls-2" d="M188.26,12.13l.12,1.54a3.86,3.86,0,0,1,1.41-1.29,4,4,0,0,1,2-.46,3.55,3.55,0,0,1,1.91.49,3,3,0,0,1,1.2,1.5,3.93,3.93,0,0,1,1.4-1.46,3.78,3.78,0,0,1,2-.53A3.32,3.32,0,0,1,201,13.14a5.82,5.82,0,0,1,1,3.72v6.9h-3.13V16.85a3.28,3.28,0,0,0-.43-1.94,1.53,1.53,0,0,0-1.28-.55,2.27,2.27,0,0,0-1.16.29,2.13,2.13,0,0,0-.77.83c0,.13,0,.25,0,.34s0,.2,0,.3v7.64h-3.13V16.85a3.25,3.25,0,0,0-.43-1.93,1.52,1.52,0,0,0-1.29-.56,2.45,2.45,0,0,0-1.11.24,2.16,2.16,0,0,0-.79.68v8.48h-3.13V12.13Z"/><path class="cls-2" d="M207.24,12.13l.14,1.67a4.22,4.22,0,0,1,1.43-1.39,3.66,3.66,0,0,1,1.9-.49,3.48,3.48,0,0,1,2.75,1.13,5.38,5.38,0,0,1,1,3.59v7.12H211.3V16.65a2.8,2.8,0,0,0-.44-1.77,1.58,1.58,0,0,0-1.3-.52,2.79,2.79,0,0,0-1.23.26,2.41,2.41,0,0,0-.88.73v8.41h-3.13V12.13Z"/><path class="cls-2" d="M223,20.54a1.07,1.07,0,0,0-.5-.89,5.06,5.06,0,0,0-1.85-.65,7.28,7.28,0,0,1-3.1-1.24,2.71,2.71,0,0,1-1.06-2.24A3.22,3.22,0,0,1,217.72,13a5.13,5.13,0,0,1,3.37-1.05A5.52,5.52,0,0,1,224.62,13a3.09,3.09,0,0,1,1.28,2.62l0,.07h-3a1.51,1.51,0,0,0-.45-1.14,2.1,2.1,0,0,0-2.49-.06,1.16,1.16,0,0,0-.44.92,1,1,0,0,0,.46.87,5,5,0,0,0,1.85.61A7.66,7.66,0,0,1,225,18.12a2.8,2.8,0,0,1,1,2.3A3,3,0,0,1,224.66,23a5.78,5.78,0,0,1-3.54,1,5.41,5.41,0,0,1-3.67-1.17,3.31,3.31,0,0,1-1.29-2.68l0-.07h2.87a1.63,1.63,0,0,0,.62,1.36,2.5,2.5,0,0,0,1.51.41,2.2,2.2,0,0,0,1.33-.34A1.15,1.15,0,0,0,223,20.54Z"/><path class="cls-2" d="M231.44,23.76H228.3V21h3.14Z"/><path class="cls-2" d="M237.64,23.76H234.5V21h3.14Z"/><path class="cls-2" d="M243.84,23.76H240.7V21h3.14Z"/></g></g></svg>