<svg xmlns="http://www.w3.org/2000/svg" viewBox="0 0 272 32"><defs><style>.cls-1{fill:#24488f;}.cls-2{fill:#fff;}</style></defs><g id="Layer_2" data-name="Layer 2"><g id="TEXT"><rect class="cls-1" width="272" height="32" rx="8"/><path class="cls-2" d="M127.22,17.34a6.58,6.58,0,0,1-1.82,4.77A6.29,6.29,0,0,1,120.67,24,6.19,6.19,0,0,1,116,22.1a6.61,6.61,0,0,1-1.81-4.76V14.53A6.59,6.59,0,0,1,116,9.78a6.19,6.19,0,0,1,4.69-1.89,6.3,6.3,0,0,1,4.74,1.89,6.53,6.53,0,0,1,1.83,4.75Zm-3.13-2.83a4.72,4.72,0,0,0-.91-3,3,3,0,0,0-2.53-1.17,2.92,2.92,0,0,0-2.47,1.17,4.78,4.78,0,0,0-.89,3v2.83a4.89,4.89,0,0,0,.89,3,3,3,0,0,0,2.49,1.17,3,3,0,0,0,2.52-1.17,4.83,4.83,0,0,0,.9-3Z"/><path class="cls-2" d="M140,18.27a6.72,6.72,0,0,1-1.19,4.15A4,4,0,0,1,135.49,24a3.78,3.78,0,0,1-1.62-.33,3.35,3.35,0,0,1-1.22-1v5.58h-3.12V12.13h2.82l.19,1.38a3.67,3.67,0,0,1,1.24-1.18,3.38,3.38,0,0,1,1.69-.41,3.86,3.86,0,0,1,3.35,1.69A7.54,7.54,0,0,1,140,18ZM136.87,18a5.69,5.69,0,0,0-.54-2.66,1.8,1.8,0,0,0-1.68-1,2.43,2.43,0,0,0-1.21.29,2.11,2.11,0,0,0-.79.83v5.09a2,2,0,0,0,.79.75,2.72,2.72,0,0,0,1.23.26,1.81,1.81,0,0,0,1.67-.89,4.67,4.67,0,0,0,.53-2.42Z"/><path class="cls-2" d="M147,24a5.22,5.22,0,0,1-4.06-1.59,5.83,5.83,0,0,1-1.47-4.11v-.43a6.41,6.41,0,0,1,1.42-4.28,4.82,4.82,0,0,1,3.9-1.65,4.55,4.55,0,0,1,3.6,1.43,5.72,5.72,0,0,1,1.25,3.87v1.62h-6.93l0,.06a3.18,3.18,0,0,0,.72,1.94,2.44,2.44,0,0,0,1.93.74,6.21,6.21,0,0,0,1.79-.22,7.46,7.46,0,0,0,1.52-.65l.85,1.93a6,6,0,0,1-1.89,1A8.69,8.69,0,0,1,147,24Zm-.21-9.64a1.71,1.71,0,0,0-1.45.65,3.24,3.24,0,0,0-.62,1.72l0,.05h3.82v-.23a2.8,2.8,0,0,0-.41-1.61A1.56,1.56,0,0,0,146.76,14.34Z"/><path class="cls-2" d="M156.41,12.13l.14,1.67A4.4,4.4,0,0,1,158,12.41a3.71,3.71,0,0,1,1.9-.49,3.47,3.47,0,0,1,2.75,1.13,5.38,5.38,0,0,1,1,3.59v7.12h-3.15V16.65a2.8,2.8,0,0,0-.43-1.77,1.61,1.61,0,0,0-1.31-.52,2.85,2.85,0,0,0-1.23.26,2.47,2.47,0,0,0-.87.73v8.41h-3.14V12.13Z"/><path class="cls-2" d="M169.43,23.76h-3.14V21h3.14Z"/><path class="cls-2" d="M175.63,23.76H172.5V21h3.13Z"/><path class="cls-2" d="M181.84,23.76H178.7V21h3.14Z"/><path class="cls-2" d="M96.34,12l1.41,1.41a2,2,0,0,0,1.41.59h5v6h-12V12h4.18m.82-2h-7V22h16V12h-7l-2-2Z"/></g></g></svg>