<svg xmlns="http://www.w3.org/2000/svg" viewBox="0 0 272 32"><defs><style>.cls-1{fill:#30303c;}.cls-2{fill:#48485a;}</style></defs><g id="Layer_2" data-name="Layer 2"><g id="TEXT"><rect class="cls-1" width="272" height="32" rx="8"/><path class="cls-2" d="M114.6,17.51v6.25h-3.13V8.12h5.41a6.43,6.43,0,0,1,4.18,1.22,4.1,4.1,0,0,1,1.51,3.4,3.38,3.38,0,0,1-.64,2.07,4.36,4.36,0,0,1-1.86,1.42,3.33,3.33,0,0,1,2,1.36,4.31,4.31,0,0,1,.61,2.37V21.1a5.55,5.55,0,0,0,.18,1.37,1.92,1.92,0,0,0,.6,1.06v.23h-3.23a1.71,1.71,0,0,1-.55-1.14,10.33,10.33,0,0,1-.13-1.54V20a2.5,2.5,0,0,0-.63-1.82,2.4,2.4,0,0,0-1.81-.65Zm0-2.42h2.23a2.94,2.94,0,0,0,2-.56,2.06,2.06,0,0,0,.65-1.65,2.28,2.28,0,0,0-.65-1.71,2.65,2.65,0,0,0-1.91-.64H114.6Z"/><path class="cls-2" d="M130.09,24A5.22,5.22,0,0,1,126,22.39a5.83,5.83,0,0,1-1.46-4.11v-.43A6.4,6.4,0,0,1,126,13.57a4.82,4.82,0,0,1,3.9-1.65,4.54,4.54,0,0,1,3.6,1.43,5.72,5.72,0,0,1,1.25,3.87v1.62H127.8l0,.06a3.18,3.18,0,0,0,.72,1.94,2.46,2.46,0,0,0,1.93.74,6.21,6.21,0,0,0,1.79-.22,7.24,7.24,0,0,0,1.52-.65l.85,1.93a6,6,0,0,1-1.89,1A8.64,8.64,0,0,1,130.09,24Zm-.21-9.64a1.71,1.71,0,0,0-1.45.65,3.24,3.24,0,0,0-.62,1.72l0,.05h3.83v-.23a2.72,2.72,0,0,0-.42-1.61A1.55,1.55,0,0,0,129.88,14.34Z"/><path class="cls-2" d="M137.35,23.76V14.34h-1.73V12.13h1.73V10.85a4,4,0,0,1,1.13-3,4.48,4.48,0,0,1,3.17-1.06,5.52,5.52,0,0,1,.81.06c.28,0,.58.1.91.17l-.27,2.33-.5-.07a3.13,3.13,0,0,0-.56,0,1.51,1.51,0,0,0-1.16.42,1.71,1.71,0,0,0-.39,1.21v1.28h2.24v2.21h-2.24v9.42Z"/><path class="cls-2" d="M150.23,14.83l-1.15,0a2.11,2.11,0,0,0-1.15.29,1.81,1.81,0,0,0-.69.82v7.85h-3.12V12.13H147l.14,1.72a3.64,3.64,0,0,1,1.06-1.42,2.35,2.35,0,0,1,1.5-.51,2,2,0,0,1,.43,0,2.88,2.88,0,0,1,.4.09Z"/><path class="cls-2" d="M156.76,24a5.24,5.24,0,0,1-4.06-1.59,5.87,5.87,0,0,1-1.46-4.11v-.43a6.35,6.35,0,0,1,1.42-4.28,4.8,4.8,0,0,1,3.9-1.65,4.53,4.53,0,0,1,3.59,1.43,5.72,5.72,0,0,1,1.25,3.87v1.62h-6.93l0,.06a3.12,3.12,0,0,0,.73,1.94,2.42,2.42,0,0,0,1.92.74,6.16,6.16,0,0,0,1.79-.22,7.24,7.24,0,0,0,1.52-.65l.85,1.93a6,6,0,0,1-1.89,1A8.64,8.64,0,0,1,156.76,24Zm-.2-9.64a1.73,1.73,0,0,0-1.46.65,3.24,3.24,0,0,0-.62,1.72l0,.05h3.83v-.23a2.72,2.72,0,0,0-.42-1.61A1.55,1.55,0,0,0,156.56,14.34Z"/><path class="cls-2" d="M169.43,20.54a1.09,1.09,0,0,0-.5-.89,5.13,5.13,0,0,0-1.86-.65,7.28,7.28,0,0,1-3.1-1.24,2.7,2.7,0,0,1-1.05-2.24A3.21,3.21,0,0,1,164.18,13a5.14,5.14,0,0,1,3.38-1.05A5.51,5.51,0,0,1,171.08,13a3.09,3.09,0,0,1,1.28,2.62l0,.07h-3a1.51,1.51,0,0,0-.45-1.14,1.81,1.81,0,0,0-1.3-.44,1.76,1.76,0,0,0-1.2.38,1.16,1.16,0,0,0-.44.92,1,1,0,0,0,.46.87,5,5,0,0,0,1.85.61,7.66,7.66,0,0,1,3.19,1.26,2.78,2.78,0,0,1,1.05,2.3A3,3,0,0,1,171.12,23a5.74,5.74,0,0,1-3.54,1,5.41,5.41,0,0,1-3.67-1.17,3.27,3.27,0,0,1-1.28-2.68l0-.07h2.87a1.62,1.62,0,0,0,.61,1.36,2.5,2.5,0,0,0,1.51.41,2.2,2.2,0,0,0,1.33-.34A1.16,1.16,0,0,0,169.43,20.54Z"/><path class="cls-2" d="M177.51,13.61a4,4,0,0,1,1.34-1.24,3.87,3.87,0,0,1,4.62.76,5.63,5.63,0,0,1,1,3.73v6.9h-3.13V16.84a3.23,3.23,0,0,0-.44-1.92,1.55,1.55,0,0,0-1.3-.56,3.17,3.17,0,0,0-1.25.23,2.06,2.06,0,0,0-.87.66v8.51h-3.14V7h3.14Z"/><path class="cls-2" d="M90.72,17.68h3s.09,0,.11,0,0,.08,0,.11l-.37.38-1.67,1.62c-.2.2-.2.2,0,.39a5.36,5.36,0,0,0,2.93,1.3,5.6,5.6,0,0,0,5.83-3.31,1.23,1.23,0,1,1,2.19,1.09,9.61,9.61,0,0,1-1.14,1.8A8,8,0,0,1,92,23.2a7.72,7.72,0,0,1-1.87-1.27l-.06-.05c-.21-.2-.21-.2-.41,0l-2,2s-.08.12-.15.1,0-.12,0-.19V17.92c0-.22,0-.24.25-.24Z"/><path class="cls-2" d="M100.26,14.36h-3c-.06,0-.16,0-.19,0s.06-.12.11-.16l2-2c.12-.11.14-.19,0-.31a5.18,5.18,0,0,0-2.72-1.31,5.45,5.45,0,0,0-4.34,1,5.57,5.57,0,0,0-1.61,1.93,1.89,1.89,0,0,0-.09.21,1.23,1.23,0,1,1-2.28-.89A7.6,7.6,0,0,1,91.66,9a7.78,7.78,0,0,1,8.74.71,4.19,4.19,0,0,1,.56.48c.11.1.17.09.27,0l2-1.95.06-.07s.09-.12.16-.09,0,.11,0,.17c0,.56,0,1.13,0,1.69,0,1.36,0,2.73,0,4.1,0,.3,0,.31-.31.31Z"/></g></g></svg>