<svg xmlns="http://www.w3.org/2000/svg" viewBox="0 0 204 32"><defs><style>.cls-1{fill:#30303c;}.cls-2{fill:#48485a;}</style></defs><g id="Layer_2" data-name="Layer 2"><g id="TEXT"><path class="cls-1" d="M196.15,0H8A8,8,0,0,0,0,8V24a8,8,0,0,0,8,8H196.15A8,8,0,0,0,204,24V8A8,8,0,0,0,196.15,0Z"/><path class="cls-2" d="M129.29,8.28a1,1,0,0,0,0,1.42L134.6,15H123a1,1,0,0,0,0,2H134.6l-5.31,5.3a1,1,0,0,0,1.42,1.42l7-7a1,1,0,0,0,.21-.33.94.94,0,0,0,0-.76,1,1,0,0,0-.21-.33l-7-7A1,1,0,0,0,129.29,8.28Z"/><path class="cls-2" d="M69.13,17.51v6.25H66V8.12H71.4a6.46,6.46,0,0,1,4.19,1.22,4.13,4.13,0,0,1,1.51,3.4,3.44,3.44,0,0,1-.64,2.07,4.45,4.45,0,0,1-1.87,1.42,3.36,3.36,0,0,1,2,1.36,4.39,4.39,0,0,1,.6,2.37V21.1a5.55,5.55,0,0,0,.18,1.37A1.87,1.87,0,0,0,78,23.53v.23H74.74a1.76,1.76,0,0,1-.55-1.14,10.28,10.28,0,0,1-.12-1.54V20a2.51,2.51,0,0,0-.64-1.82,2.4,2.4,0,0,0-1.81-.65Zm0-2.42h2.22a3,3,0,0,0,2-.56A2.06,2.06,0,0,0,74,12.88a2.28,2.28,0,0,0-.65-1.71,2.64,2.64,0,0,0-1.91-.64H69.13Z"/><path class="cls-2" d="M84.61,24a5.24,5.24,0,0,1-4.06-1.59,5.87,5.87,0,0,1-1.46-4.11v-.43a6.35,6.35,0,0,1,1.42-4.28,4.8,4.8,0,0,1,3.9-1.65A4.52,4.52,0,0,1,88,13.35a5.72,5.72,0,0,1,1.25,3.87v1.62H82.32l0,.06A3.12,3.12,0,0,0,83,20.84a2.42,2.42,0,0,0,1.92.74,6.16,6.16,0,0,0,1.79-.22,7.24,7.24,0,0,0,1.52-.65l.85,1.93a5.75,5.75,0,0,1-1.89,1A8.6,8.6,0,0,1,84.61,24Zm-.2-9.64A1.73,1.73,0,0,0,83,15a3.33,3.33,0,0,0-.62,1.72l0,.05h3.82v-.23a2.72,2.72,0,0,0-.42-1.61A1.55,1.55,0,0,0,84.41,14.34Z"/><path class="cls-2" d="M90.67,18a7.54,7.54,0,0,1,1.19-4.43,3.85,3.85,0,0,1,3.35-1.69,3.17,3.17,0,0,1,1.57.38A3.73,3.73,0,0,1,98,13.37V7h3.15V23.76H98.47l-.27-1.43a3.71,3.71,0,0,1-1.3,1.23,3.44,3.44,0,0,1-1.71.42,3.94,3.94,0,0,1-3.33-1.56,6.72,6.72,0,0,1-1.19-4.15Zm3.13.23a4.65,4.65,0,0,0,.52,2.4,1.79,1.79,0,0,0,1.67.87,2.45,2.45,0,0,0,1.18-.27,2.12,2.12,0,0,0,.83-.8V15.52a2.42,2.42,0,0,0-.82-.86,2.24,2.24,0,0,0-1.17-.3,1.78,1.78,0,0,0-1.68,1A5.82,5.82,0,0,0,93.8,18Z"/><path class="cls-2" d="M103,17.84a6.28,6.28,0,0,1,1.45-4.26,5.06,5.06,0,0,1,4-1.66,5.11,5.11,0,0,1,4,1.65A6.25,6.25,0,0,1,114,17.84v.22a6.19,6.19,0,0,1-1.45,4.27,5.75,5.75,0,0,1-8.06,0A6.2,6.2,0,0,1,103,18.06Zm3.13.22a5.14,5.14,0,0,0,.56,2.56,2.14,2.14,0,0,0,3.58,0,5,5,0,0,0,.57-2.55v-.22a5,5,0,0,0-.57-2.53,1.93,1.93,0,0,0-1.8-1,1.9,1.9,0,0,0-1.78,1,5.06,5.06,0,0,0-.56,2.52Z"/></g></g></svg>