<svg xmlns="http://www.w3.org/2000/svg" viewBox="0 0 108.13 24"><defs><style>.cls-1{fill:#208020;}.cls-2{fill:#fff;}</style></defs><g id="Layer_2" data-name="Layer 2"><g id="VECTOR"><rect class="cls-1" width="108.13" height="24" rx="6"/><path class="cls-2" d="M9.59,18.26h0a1.24,1.24,0,0,1-1-.49l-3.85-5a1.25,1.25,0,0,1,2-1.52L9.65,15l7.66-8.84A1.25,1.25,0,1,1,19.2,7.83l-8.66,10A1.28,1.28,0,0,1,9.59,18.26Z"/><path class="cls-2" d="M35.5,7v6.61a3.23,3.23,0,0,1-1.07,2.57,4.06,4.06,0,0,1-2.75.92A3.81,3.81,0,0,1,29,16.21a3.24,3.24,0,0,1-1-2.56V7h1.35v6.61A2.37,2.37,0,0,0,30,15.44a2.29,2.29,0,0,0,1.68.65,2.52,2.52,0,0,0,1.79-.65,2.35,2.35,0,0,0,.68-1.79V7Z"/><path class="cls-2" d="M38.67,9.6l.09,1.1a2.69,2.69,0,0,1,.93-.91,2.72,2.72,0,0,1,3.12.37,3.08,3.08,0,0,1,.66,2.17V17H42.12V12.36A2,2,0,0,0,41.73,11a1.51,1.51,0,0,0-1.18-.41,2,2,0,0,0-1,.25,1.79,1.79,0,0,0-.69.7V17H37.46V9.6Z"/><path class="cls-2" d="M49.61,15a.92.92,0,0,0-.33-.73A3.44,3.44,0,0,0,48,13.79,5.37,5.37,0,0,1,46,13a1.56,1.56,0,0,1-.7-1.35,1.91,1.91,0,0,1,.77-1.54,3.37,3.37,0,0,1,4,0,1.94,1.94,0,0,1,.74,1.59v0H49.53a1.17,1.17,0,0,0-.42-.87,1.49,1.49,0,0,0-1.06-.39,1.54,1.54,0,0,0-1.06.32,1,1,0,0,0-.36.77.83.83,0,0,0,.31.68,3.32,3.32,0,0,0,1.25.43,5.46,5.46,0,0,1,2.07.82,1.63,1.63,0,0,1,.7,1.37,2,2,0,0,1-.79,1.61,3.35,3.35,0,0,1-2.09.62,3.27,3.27,0,0,1-2.23-.72,2,2,0,0,1-.77-1.67l0,0h1.28a1.24,1.24,0,0,0,.53,1,2.11,2.11,0,0,0,1.17.33,1.81,1.81,0,0,0,1.13-.31A.92.92,0,0,0,49.61,15Z"/><path class="cls-2" d="M55.63,17.14a3.15,3.15,0,0,1-2.49-1,3.94,3.94,0,0,1-.89-2.68v-.3a3.83,3.83,0,0,1,.92-2.63,2.87,2.87,0,0,1,2.25-1,2.67,2.67,0,0,1,2.22.93,3.81,3.81,0,0,1,.74,2.45v.71H53.65l0,0a3,3,0,0,0,.49,1.8,1.71,1.71,0,0,0,1.51.7,3.43,3.43,0,0,0,1.2-.2,2.76,2.76,0,0,0,.88-.53l.53.87a3.24,3.24,0,0,1-1.05.65A4.24,4.24,0,0,1,55.63,17.14Zm-.21-6.62a1.46,1.46,0,0,0-1.17.55,2.46,2.46,0,0,0-.56,1.39v0H57v-.11a2.19,2.19,0,0,0-.4-1.33A1.44,1.44,0,0,0,55.42,10.52Z"/><path class="cls-2" d="M61.39,17H60V6.33h1.35Z"/><path class="cls-2" d="M66.49,17.14a3.11,3.11,0,0,1-2.48-1,3.89,3.89,0,0,1-.89-2.68v-.3A3.83,3.83,0,0,1,64,10.51a2.9,2.9,0,0,1,2.25-1,2.66,2.66,0,0,1,2.22.93,3.75,3.75,0,0,1,.75,2.45v.71H64.52l0,0a3,3,0,0,0,.49,1.8,1.71,1.71,0,0,0,1.5.7,3.35,3.35,0,0,0,1.2-.2,2.81,2.81,0,0,0,.89-.53l.52.87a3.19,3.19,0,0,1-1,.65A4.3,4.3,0,0,1,66.49,17.14Zm-.21-6.62a1.46,1.46,0,0,0-1.17.55,2.61,2.61,0,0,0-.56,1.39v0H67.9v-.11a2.12,2.12,0,0,0-.4-1.33A1.43,1.43,0,0,0,66.28,10.52Z"/><path class="cls-2" d="M73.76,16.09a1.56,1.56,0,0,0,1.08-.42,1.29,1.29,0,0,0,.47-1h1.21l0,0a2.11,2.11,0,0,1-.82,1.7,3.13,3.13,0,0,1-4.37-.32,4.06,4.06,0,0,1-.85-2.64v-.28a4.11,4.11,0,0,1,.85-2.63,2.91,2.91,0,0,1,2.41-1.07,2.78,2.78,0,0,1,2,.77,2.41,2.41,0,0,1,.76,1.88v0H75.31A1.65,1.65,0,0,0,74.87,11a1.46,1.46,0,0,0-1.11-.48,1.55,1.55,0,0,0-1.45.77,3.67,3.67,0,0,0-.45,1.87v.28a3.63,3.63,0,0,0,.44,1.88A1.57,1.57,0,0,0,73.76,16.09Z"/><path class="cls-2" d="M80.06,7.82V9.6h1.4v1h-1.4v4.49a1,1,0,0,0,.21.73.77.77,0,0,0,.57.21l.26,0,.24-.06.19.92a1.26,1.26,0,0,1-.45.2,2.38,2.38,0,0,1-.58.08,1.76,1.76,0,0,1-1.31-.49,2.19,2.19,0,0,1-.48-1.56V10.6H77.53v-1h1.18V7.82Z"/><path class="cls-2" d="M91.7,14.43H88L87.07,17H85.7L89.28,7h1.16L94,17H92.58Zm-3.35-1.12h3L89.87,9h0Z"/><path class="cls-2" d="M96.71,17H95.36V6.33h1.35Z"/><path class="cls-2" d="M100.13,17H98.79V6.33h1.34Z"/></g></g></svg>