<svg xmlns="http://www.w3.org/2000/svg" viewBox="0 0 156.17 16"><defs><style>.cls-1{fill:#ffff40;}.cls-2{fill:#101014;}</style></defs><g id="Layer_2" data-name="Layer 2"><g id="Layer_6" data-name="Layer 6"><path class="cls-1" d="M152.17,0H8a1,1,0,0,0-.35.07l-.1,0a.57.57,0,0,0-.18.12l-.1.09A1,1,0,0,0,7.1.58h0l-7,14h0A.91.91,0,0,0,0,15a1,1,0,0,0,1,1H152.17a4,4,0,0,0,4-4V4A4,4,0,0,0,152.17,0Z"/><circle class="cls-2" cx="8" cy="13" r="1"/><path class="cls-2" d="M8,4A1,1,0,0,0,7,5V9A1,1,0,0,0,9,9V5A1,1,0,0,0,8,4Z"/><path class="cls-2" d="M20,12.14V3.61h2.63a2.8,2.8,0,0,1,2.21,1,3.75,3.75,0,0,1,.87,2.56V8.58a3.76,3.76,0,0,1-.87,2.57,2.82,2.82,0,0,1-2.21,1ZM21.65,4.9v5.95h1a1.17,1.17,0,0,0,1-.63,3.09,3.09,0,0,0,.39-1.64V7.16a3,3,0,0,0-.39-1.62,1.18,1.18,0,0,0-1-.64Z"/><path class="cls-2" d="M30.1,11.24a2.09,2.09,0,0,1-.63.76,1.52,1.52,0,0,1-.88.26,1.55,1.55,0,0,1-1.34-.68,3.67,3.67,0,0,1-.49-2.12V5.8h1.65V9.47a2.8,2.8,0,0,0,.17,1.17.55.55,0,0,0,.52.33,1.19,1.19,0,0,0,.51-.11,1,1,0,0,0,.37-.32V5.8h1.65v6.34H30.28Z"/><path class="cls-2" d="M37.81,9.13a4.18,4.18,0,0,1-.56,2.28,1.77,1.77,0,0,1-1.57.85A1.46,1.46,0,0,1,35,12.1a1.42,1.42,0,0,1-.54-.47v2.95H32.78V5.8h1.51l.07.65a2,2,0,0,1,.56-.57,1.4,1.4,0,0,1,.75-.2,1.76,1.76,0,0,1,1.58.92A4.6,4.6,0,0,1,37.81,9ZM36.16,9a4,4,0,0,0-.23-1.47A.74.74,0,0,0,35.24,7a.76.76,0,0,0-.48.15.94.94,0,0,0-.33.4v3a.83.83,0,0,0,.33.34.94.94,0,0,0,.49.11.71.71,0,0,0,.69-.48,3.53,3.53,0,0,0,.22-1.36Z"/><path class="cls-2" d="M40.45,12.14H38.8V3h1.65Z"/><path class="cls-2" d="M43.34,4.26H41.68V3h1.66Zm0,7.88H41.68V5.8h1.66Z"/><path class="cls-2" d="M46.87,11a.59.59,0,0,0,.53-.26,1.28,1.28,0,0,0,.18-.74h1.49l0,0a2.15,2.15,0,0,1-.62,1.63,2.18,2.18,0,0,1-1.6.63A2.22,2.22,0,0,1,45,11.37a3.74,3.74,0,0,1-.67-2.31V8.89A3.74,3.74,0,0,1,45,6.58a2.22,2.22,0,0,1,1.9-.9,2.12,2.12,0,0,1,1.64.66,2.46,2.46,0,0,1,.59,1.78v0h-1.5a1.76,1.76,0,0,0-.18-.85A.59.59,0,0,0,46.86,7a.73.73,0,0,0-.72.52A4.08,4.08,0,0,0,46,8.89v.17a4.07,4.07,0,0,0,.19,1.4A.74.74,0,0,0,46.87,11Z"/><path class="cls-2" d="M53.16,12.14a2.75,2.75,0,0,1-.16-.46,4,4,0,0,1-.09-.5,2.15,2.15,0,0,1-.55.78,1.24,1.24,0,0,1-.84.3,1.77,1.77,0,0,1-1.34-.5,2,2,0,0,1-.46-1.39,1.76,1.76,0,0,1,.61-1.44,2.76,2.76,0,0,1,1.83-.52h.72V7.89a1.33,1.33,0,0,0-.17-.73.6.6,0,0,0-.52-.26.55.55,0,0,0-.47.21,1,1,0,0,0-.16.58H50v0a1.7,1.7,0,0,1,.61-1.39,2.54,2.54,0,0,1,1.72-.58,2.29,2.29,0,0,1,1.62.58,2.1,2.1,0,0,1,.63,1.64v2.6a5.53,5.53,0,0,0,.06.84,4.46,4.46,0,0,0,.2.8ZM52,11a1,1,0,0,0,.58-.2,1,1,0,0,0,.35-.49v-1h-.72a.67.67,0,0,0-.6.27,1.14,1.14,0,0,0-.19.68.86.86,0,0,0,.15.53A.52.52,0,0,0,52,11Z"/><path class="cls-2" d="M57.54,4.22V5.8h.86V7h-.86v3.23a1,1,0,0,0,.11.57A.39.39,0,0,0,58,11h.2l.19,0,.12,1.22-.44.12a3.68,3.68,0,0,1-.49,0,1.56,1.56,0,0,1-1.24-.49,2.35,2.35,0,0,1-.43-1.55V7h-.76V5.8h.76V4.22Z"/><path class="cls-2" d="M61.58,12.26a2.37,2.37,0,0,1-1.95-.86,3.5,3.5,0,0,1-.69-2.24V8.92a3.85,3.85,0,0,1,.66-2.33,2.19,2.19,0,0,1,1.88-.91,2,2,0,0,1,1.71.77,3.31,3.31,0,0,1,.6,2.09v.9h-3.2a2.22,2.22,0,0,0,.32,1.12,1,1,0,0,0,.86.41,2.43,2.43,0,0,0,.82-.11,3.65,3.65,0,0,0,.71-.36l.43,1a2.68,2.68,0,0,1-.92.52A3.53,3.53,0,0,1,61.58,12.26ZM61.48,7a.66.66,0,0,0-.62.36,2.56,2.56,0,0,0-.26,1h1.57V8.2A2,2,0,0,0,62,7.3.55.55,0,0,0,61.48,7Z"/><path class="cls-2" d="M67.49,10.49a.64.64,0,0,0-.22-.48,3.61,3.61,0,0,0-.84-.49A4.4,4.4,0,0,1,65,8.71a1.5,1.5,0,0,1-.49-1.16,1.7,1.7,0,0,1,.62-1.32,2.41,2.41,0,0,1,1.64-.55,2.44,2.44,0,0,1,1.7.57,1.76,1.76,0,0,1,.61,1.43l0,0H67.45a1.13,1.13,0,0,0-.17-.64.63.63,0,0,0-.54-.24.68.68,0,0,0-.48.18.63.63,0,0,0-.2.46.56.56,0,0,0,.2.45,3.5,3.5,0,0,0,.84.48,4.11,4.11,0,0,1,1.49.81,1.59,1.59,0,0,1,.49,1.21,1.64,1.64,0,0,1-.65,1.33,2.68,2.68,0,0,1-1.71.51A2.41,2.41,0,0,1,65,11.63a1.85,1.85,0,0,1-.61-1.43l0,0h1.5a1,1,0,0,0,.24.74.9.9,0,0,0,.65.23A.72.72,0,0,0,67.3,11,.61.61,0,0,0,67.49,10.49Z"/><path class="cls-2" d="M77.3,9.33h0L77.9,5.8h1.59l-1.33,6.34H76.78l-.92-3.35h0l-.92,3.35H73.52L72.19,5.8h1.58l.58,3.55h0L75.3,5.8h1.08Z"/><path class="cls-2" d="M81.89,4.26H80.24V3h1.65Zm0,7.88H80.24V5.8h1.65Z"/><path class="cls-2" d="M84.77,12.14H83.12V3h1.65Z"/><path class="cls-2" d="M87.66,12.14H86V3h1.66Z"/><path class="cls-2" d="M96.52,9.13A4.18,4.18,0,0,1,96,11.41a1.75,1.75,0,0,1-1.58.85,1.49,1.49,0,0,1-.8-.21,1.74,1.74,0,0,1-.58-.62l-.11.71H91.5V3h1.64V6.36a1.6,1.6,0,0,1,.54-.5,1.39,1.39,0,0,1,.71-.18A1.73,1.73,0,0,1,96,6.59,4.67,4.67,0,0,1,96.52,9ZM94.87,9a4.49,4.49,0,0,0-.19-1.49A.72.72,0,0,0,94,7a.84.84,0,0,0-.5.15,1,1,0,0,0-.33.41v3a.83.83,0,0,0,.33.36A1,1,0,0,0,94,11a.7.7,0,0,0,.71-.47,3.73,3.73,0,0,0,.19-1.37Z"/><path class="cls-2" d="M99.88,12.26a2.36,2.36,0,0,1-1.94-.86,3.5,3.5,0,0,1-.69-2.24V8.92a3.85,3.85,0,0,1,.66-2.33,2.17,2.17,0,0,1,1.87-.91,2.06,2.06,0,0,1,1.72.77,3.31,3.31,0,0,1,.6,2.09v.9H98.9a2.12,2.12,0,0,0,.32,1.12.94.94,0,0,0,.86.41,2.47,2.47,0,0,0,.82-.11,3.65,3.65,0,0,0,.71-.36l.43,1a2.68,2.68,0,0,1-.92.52A3.59,3.59,0,0,1,99.88,12.26ZM99.78,7a.67.67,0,0,0-.62.36,2.57,2.57,0,0,0-.25,1h1.57V8.2a2,2,0,0,0-.16-.9A.57.57,0,0,0,99.78,7Z"/><path class="cls-2" d="M107.11,5.8l.07.89a2.08,2.08,0,0,1,.66-.74,1.57,1.57,0,0,1,2.14.36,3.36,3.36,0,0,1,.46,2v3.85h-1.65V8.29a2.21,2.21,0,0,0-.17-1,.57.57,0,0,0-.53-.3,1,1,0,0,0-.49.13,1.21,1.21,0,0,0-.38.37v4.66h-1.65V5.8Z"/><path class="cls-2" d="M114.85,11.24a1.91,1.91,0,0,1-.63.76,1.51,1.51,0,0,1-.87.26,1.57,1.57,0,0,1-1.35-.68,3.75,3.75,0,0,1-.49-2.12V5.8h1.66V9.47a2.84,2.84,0,0,0,.16,1.17.57.57,0,0,0,.53.33,1.12,1.12,0,0,0,.5-.11,1,1,0,0,0,.37-.32V5.8h1.66v6.34H115Z"/><path class="cls-2" d="M119.08,5.8l.06.82a1.88,1.88,0,0,1,.65-.69,1.59,1.59,0,0,1,.89-.25,1.44,1.44,0,0,1,.86.26,1.61,1.61,0,0,1,.56.8,2.19,2.19,0,0,1,.65-.78,1.59,1.59,0,0,1,.92-.28,1.47,1.47,0,0,1,1.26.67,3.64,3.64,0,0,1,.46,2.05v3.74h-1.65V8.4a2.39,2.39,0,0,0-.17-1.11.56.56,0,0,0-.52-.31.77.77,0,0,0-.46.15,1.07,1.07,0,0,0-.32.42,1.93,1.93,0,0,0,0,.25,1.48,1.48,0,0,1,0,.21v4.13h-1.65V8.4a2.45,2.45,0,0,0-.17-1.11A.57.57,0,0,0,120,7a.83.83,0,0,0-.44.12,1.16,1.16,0,0,0-.32.34v4.7h-1.65V5.8Z"/><path class="cls-2" d="M131.58,9.13a4.09,4.09,0,0,1-.55,2.28,1.75,1.75,0,0,1-1.58.85,1.49,1.49,0,0,1-.8-.21,1.83,1.83,0,0,1-.58-.62l-.11.71h-1.41V3h1.65V6.36a1.67,1.67,0,0,1,.53-.5,1.41,1.41,0,0,1,.71-.18,1.73,1.73,0,0,1,1.59.91A4.57,4.57,0,0,1,131.58,9ZM129.92,9a4.49,4.49,0,0,0-.19-1.49A.71.71,0,0,0,129,7a.81.81,0,0,0-.49.15,1,1,0,0,0-.33.41v3a.87.87,0,0,0,.32.36A1,1,0,0,0,129,11a.71.71,0,0,0,.71-.47,4,4,0,0,0,.18-1.37Z"/><path class="cls-2" d="M134.94,12.26A2.37,2.37,0,0,1,133,11.4a3.5,3.5,0,0,1-.69-2.24V8.92A3.85,3.85,0,0,1,133,6.59a2.19,2.19,0,0,1,1.88-.91,2,2,0,0,1,1.71.77,3.31,3.31,0,0,1,.6,2.09v.9H134a2.22,2.22,0,0,0,.32,1.12,1,1,0,0,0,.86.41,2.43,2.43,0,0,0,.82-.11,3.65,3.65,0,0,0,.71-.36l.43,1a2.59,2.59,0,0,1-.92.52A3.53,3.53,0,0,1,134.94,12.26ZM134.84,7a.66.66,0,0,0-.62.36,2.56,2.56,0,0,0-.26,1h1.57V8.2a2,2,0,0,0-.16-.9A.55.55,0,0,0,134.84,7Z"/><path class="cls-2" d="M141.05,7.23l-.56,0a.71.71,0,0,0-.46.15.88.88,0,0,0-.28.41v4.37H138.1V5.8h1.54l.07.9a2,2,0,0,1,.46-.75.92.92,0,0,1,.65-.27l.21,0,.19,0Z"/><path class="cls-2" d="M144.21,12.26a2.36,2.36,0,0,1-1.94-.86,3.45,3.45,0,0,1-.7-2.24V8.92a3.85,3.85,0,0,1,.67-2.33,2.17,2.17,0,0,1,1.87-.91,2.06,2.06,0,0,1,1.72.77,3.31,3.31,0,0,1,.6,2.09v.9h-3.2a2.12,2.12,0,0,0,.32,1.12.94.94,0,0,0,.85.41,2.49,2.49,0,0,0,.83-.11,3.65,3.65,0,0,0,.71-.36l.43,1a2.78,2.78,0,0,1-.92.52A3.59,3.59,0,0,1,144.21,12.26ZM144.11,7a.67.67,0,0,0-.62.36,2.57,2.57,0,0,0-.25,1h1.57V8.2a2.2,2.2,0,0,0-.16-.9A.57.57,0,0,0,144.11,7Z"/><path class="cls-2" d="M147.15,9a4.6,4.6,0,0,1,.56-2.41,1.76,1.76,0,0,1,1.58-.92,1.22,1.22,0,0,1,.68.19,1.77,1.77,0,0,1,.55.51V3h1.65v9.14h-1.41l-.12-.71a2,2,0,0,1-.59.62,1.47,1.47,0,0,1-.78.21,1.75,1.75,0,0,1-1.56-.85,4.18,4.18,0,0,1-.56-2.28Zm1.64.12a3.53,3.53,0,0,0,.21,1.35.72.72,0,0,0,.7.49.86.86,0,0,0,.48-.13.94.94,0,0,0,.34-.37V7.56a1.11,1.11,0,0,0-.34-.42.81.81,0,0,0-.47-.16.74.74,0,0,0-.7.56A4.22,4.22,0,0,0,148.79,9Z"/></g></g></svg>