<svg xmlns="http://www.w3.org/2000/svg" viewBox="0 0 100.52 16"><defs><style>.cls-1{fill:#ff4040;}.cls-2{fill:#fff;}</style></defs><g id="Layer_2" data-name="Layer 2"><g id="Layer_6" data-name="Layer 6"><path class="cls-1" d="M96.52,0H8A8,8,0,0,0,8,16H96.52a4,4,0,0,0,4-4V4A4,4,0,0,0,96.52,0Z"/><path class="cls-2" d="M25.75,9.49v0a2.61,2.61,0,0,1-.7,2.05,2.87,2.87,0,0,1-2.07.68,3,3,0,0,1-2.18-.81A3.12,3.12,0,0,1,20,9.15V6.62a3.2,3.2,0,0,1,.78-2.31,2.77,2.77,0,0,1,2.11-.82A3.05,3.05,0,0,1,25,4.17a2.54,2.54,0,0,1,.73,2.05v0H24.15a1.71,1.71,0,0,0-.29-1.15,1.22,1.22,0,0,0-1-.33,1.06,1.06,0,0,0-.93.45,2.5,2.5,0,0,0-.31,1.37V9.15A2.26,2.26,0,0,0,22,10.53,1.15,1.15,0,0,0,23,11a1.09,1.09,0,0,0,.89-.32,1.86,1.86,0,0,0,.27-1.16Z"/><path class="cls-2" d="M29.94,12.14a2.08,2.08,0,0,1-.16-.46,4,4,0,0,1-.09-.5,2.15,2.15,0,0,1-.55.78,1.24,1.24,0,0,1-.84.3,1.76,1.76,0,0,1-1.34-.5,2,2,0,0,1-.46-1.39,1.76,1.76,0,0,1,.61-1.44,2.76,2.76,0,0,1,1.83-.52h.72V7.89a1.33,1.33,0,0,0-.17-.73A.61.61,0,0,0,29,6.9a.55.55,0,0,0-.46.21,1,1,0,0,0-.16.58H26.75v0a1.67,1.67,0,0,1,.61-1.39,2.54,2.54,0,0,1,1.72-.58,2.29,2.29,0,0,1,1.62.58,2.1,2.1,0,0,1,.62,1.64v2.6a4.46,4.46,0,0,0,.07.84,4.46,4.46,0,0,0,.2.8ZM28.72,11a1,1,0,0,0,.59-.2,1,1,0,0,0,.35-.49v-1h-.72a.7.7,0,0,0-.61.27,1.21,1.21,0,0,0-.19.68.86.86,0,0,0,.16.53A.51.51,0,0,0,28.72,11Z"/><path class="cls-2" d="M34,5.8l.07.89A2.08,2.08,0,0,1,34.71,6a1.57,1.57,0,0,1,2.14.36,3.44,3.44,0,0,1,.46,2v3.85H35.66V8.29a2.06,2.06,0,0,0-.18-1A.56.56,0,0,0,35,7a1,1,0,0,0-.5.13,1.19,1.19,0,0,0-.37.37v4.66H32.44V5.8Z"/><path class="cls-2" d="M40,5.8l.07.89A2.08,2.08,0,0,1,40.7,6a1.49,1.49,0,0,1,.87-.27,1.48,1.48,0,0,1,1.27.63,3.36,3.36,0,0,1,.46,2v3.85H41.65V8.29a2.21,2.21,0,0,0-.17-1A.57.57,0,0,0,41,7a1,1,0,0,0-.49.13,1.21,1.21,0,0,0-.38.37v4.66H38.43V5.8Z"/><path class="cls-2" d="M44.19,8.91a3.79,3.79,0,0,1,.68-2.33,2.5,2.5,0,0,1,3.84,0,3.67,3.67,0,0,1,.7,2.33v.14a3.7,3.7,0,0,1-.69,2.32,2.52,2.52,0,0,1-3.84,0,3.68,3.68,0,0,1-.69-2.32Zm1.65.14a3.57,3.57,0,0,0,.22,1.4.78.78,0,0,0,1.47,0,3.57,3.57,0,0,0,.22-1.4V8.91a3.63,3.63,0,0,0-.22-1.4A.76.76,0,0,0,46.79,7a.75.75,0,0,0-.73.53,3.67,3.67,0,0,0-.22,1.4Z"/><path class="cls-2" d="M52.19,4.22V5.8h.86V7h-.86v3.23a1,1,0,0,0,.12.57.36.36,0,0,0,.32.17h.19l.19,0,.13,1.22-.45.12a3.43,3.43,0,0,1-.48,0A1.54,1.54,0,0,1,51,11.77a2.3,2.3,0,0,1-.43-1.55V7h-.77V5.8h.77V4.22Z"/><path class="cls-2" d="M61.66,9.13a4.18,4.18,0,0,1-.54,2.28,1.76,1.76,0,0,1-1.59.85,1.46,1.46,0,0,1-.79-.21,1.74,1.74,0,0,1-.58-.62l-.12.71H56.63V3h1.65V6.36a1.6,1.6,0,0,1,.54-.5,1.36,1.36,0,0,1,.71-.18,1.73,1.73,0,0,1,1.59.91A4.67,4.67,0,0,1,61.66,9ZM60,9a4.45,4.45,0,0,0-.2-1.49A.71.71,0,0,0,59.1,7a.81.81,0,0,0-.49.15,1,1,0,0,0-.33.41v3a.83.83,0,0,0,.33.36,1,1,0,0,0,.5.12.71.71,0,0,0,.71-.47A4,4,0,0,0,60,9.13Z"/><path class="cls-2" d="M65,12.26a2.37,2.37,0,0,1-1.95-.86,3.5,3.5,0,0,1-.69-2.24V8.92a3.79,3.79,0,0,1,.67-2.33,2.16,2.16,0,0,1,1.87-.91,2.06,2.06,0,0,1,1.72.77,3.37,3.37,0,0,1,.59,2.09v.9H64a2.32,2.32,0,0,0,.32,1.12,1,1,0,0,0,.86.41,2.53,2.53,0,0,0,.83-.11,4,4,0,0,0,.71-.36l.42,1a2.62,2.62,0,0,1-.91.52A3.63,3.63,0,0,1,65,12.26ZM64.92,7a.67.67,0,0,0-.62.36,2.57,2.57,0,0,0-.25,1h1.57V8.2a2.2,2.2,0,0,0-.16-.9A.57.57,0,0,0,64.92,7Z"/><path class="cls-2" d="M75.76,9.13a4.18,4.18,0,0,1-.54,2.28,1.75,1.75,0,0,1-1.58.85,1.49,1.49,0,0,1-.8-.21,1.74,1.74,0,0,1-.58-.62l-.11.71H70.74V3h1.64V6.36a1.81,1.81,0,0,1,.54-.5,1.41,1.41,0,0,1,.71-.18,1.73,1.73,0,0,1,1.59.91A4.67,4.67,0,0,1,75.76,9ZM74.11,9a4.49,4.49,0,0,0-.19-1.49A.72.72,0,0,0,73.21,7a.84.84,0,0,0-.5.15,1.24,1.24,0,0,0-.33.41v3a1,1,0,0,0,.33.36,1,1,0,0,0,.51.12.69.69,0,0,0,.7-.47,3.73,3.73,0,0,0,.19-1.37Z"/><path class="cls-2" d="M78.42,12.14H76.77V3h1.65Z"/><path class="cls-2" d="M82.78,12.14a2.76,2.76,0,0,1-.15-.46,4,4,0,0,1-.09-.5A2.17,2.17,0,0,1,82,12a1.24,1.24,0,0,1-.84.3,1.73,1.73,0,0,1-1.33-.5,2,2,0,0,1-.47-1.39A1.77,1.77,0,0,1,80,8.93a2.72,2.72,0,0,1,1.83-.52h.72V7.89a1.25,1.25,0,0,0-.18-.73.6.6,0,0,0-.52-.26.54.54,0,0,0-.46.21.89.89,0,0,0-.16.58h-1.6v0a1.68,1.68,0,0,1,.62-1.39,2.5,2.5,0,0,1,1.72-.58,2.33,2.33,0,0,1,1.62.58,2.13,2.13,0,0,1,.62,1.64v2.6a5.53,5.53,0,0,0,.06.84,5.51,5.51,0,0,0,.2.8ZM81.57,11a1,1,0,0,0,.59-.2,1.11,1.11,0,0,0,.35-.49v-1h-.72a.7.7,0,0,0-.61.27,1.14,1.14,0,0,0-.19.68.8.8,0,0,0,.16.53A.49.49,0,0,0,81.57,11Z"/><path class="cls-2" d="M86.83,5.8l.07.89A2.06,2.06,0,0,1,87.55,6a1.49,1.49,0,0,1,.87-.27,1.48,1.48,0,0,1,1.27.63,3.36,3.36,0,0,1,.46,2v3.85H88.5V8.29a2.21,2.21,0,0,0-.17-1A.57.57,0,0,0,87.8,7a1,1,0,0,0-.49.13,1.09,1.09,0,0,0-.37.37v4.66H85.28V5.8Z"/><path class="cls-2" d="M93.24,9.48h-.3v2.66H91.29V3h1.65V8.2h.27l1.15-2.4h1.9L94.54,8.66l2,3.48H94.63Z"/><circle class="cls-2" cx="8" cy="12" r="1"/><path class="cls-2" d="M8,2A1,1,0,0,0,7,3V8A1,1,0,0,0,9,8V3A1,1,0,0,0,8,2Z"/></g></g></svg>