<svg xmlns="http://www.w3.org/2000/svg" viewBox="0 0 16 16"><defs><style>.cls-1{fill:#ffff40;}.cls-2{fill:#101014;}</style></defs><g id="Layer_2" data-name="Layer 2"><g id="Layer_6" data-name="Layer 6"><path class="cls-1" d="M15.87,14.54h0L8.91.58h0A1,1,0,0,0,8.73.33L8.63.24A.57.57,0,0,0,8.45.12l-.1,0a.91.91,0,0,0-.7,0l-.1,0a.57.57,0,0,0-.18.12l-.1.09A1,1,0,0,0,7.1.58h0l-7,14h0A.91.91,0,0,0,0,15a1,1,0,0,0,1,1H15a1,1,0,0,0,1-1A.91.91,0,0,0,15.87,14.54Z"/><circle class="cls-2" cx="8" cy="13" r="1"/><path class="cls-2" d="M8,4A1,1,0,0,0,7,5V9A1,1,0,0,0,9,9V5A1,1,0,0,0,8,4Z"/></g></g></svg>