<svg xmlns="http://www.w3.org/2000/svg" viewBox="0 0 103.28 24"><defs><style>.cls-1{fill:#bf3030;}.cls-2{fill:#fff;}</style></defs><g id="Layer_2" data-name="Layer 2"><g id="VECTOR"><rect class="cls-1" width="103.28" height="24" rx="6"/><path class="cls-2" d="M92.69,12,97,7.71a1,1,0,0,0,0-1.42,1,1,0,0,0-1.41,0l-4.29,4.29L87,6.29a1,1,0,0,0-1.41,0,1,1,0,0,0,0,1.42L89.86,12l-4.29,4.29A1,1,0,0,0,87,17.71l4.3-4.29,4.29,4.29A1,1,0,1,0,97,16.29Z"/><path class="cls-2" d="M9.35,12.68V17H8V7.05h3.4a3.75,3.75,0,0,1,2.5.73,2.59,2.59,0,0,1,.86,2.1,2.21,2.21,0,0,1-.4,1.33,2.77,2.77,0,0,1-1.16.91,2.05,2.05,0,0,1,1.18.86,2.92,2.92,0,0,1,.35,1.48v.94a3,3,0,0,0,.11.83,1.13,1.13,0,0,0,.35.6V17H13.8a1.19,1.19,0,0,1-.34-.69,5.65,5.65,0,0,1-.07-.93v-.91a1.79,1.79,0,0,0-.47-1.29,1.69,1.69,0,0,0-1.27-.5Zm0-1.06h1.92a2.48,2.48,0,0,0,1.64-.43,1.63,1.63,0,0,0,.5-1.32,1.74,1.74,0,0,0-.48-1.31A2.22,2.22,0,0,0,11.4,8.1H9.35Z"/><path class="cls-2" d="M19.69,17.14a3.15,3.15,0,0,1-2.49-1,3.94,3.94,0,0,1-.89-2.68v-.3a3.83,3.83,0,0,1,.92-2.63,2.87,2.87,0,0,1,2.25-1,2.67,2.67,0,0,1,2.22.93,3.75,3.75,0,0,1,.74,2.45v.71H17.71l0,0a3.09,3.09,0,0,0,.49,1.8,1.71,1.71,0,0,0,1.51.7,3.43,3.43,0,0,0,1.2-.2,2.76,2.76,0,0,0,.88-.53l.53.87a3.24,3.24,0,0,1-1.05.65A4.24,4.24,0,0,1,19.69,17.14Zm-.21-6.62a1.46,1.46,0,0,0-1.17.55,2.46,2.46,0,0,0-.56,1.39v0H21.1v-.11a2.19,2.19,0,0,0-.4-1.33A1.44,1.44,0,0,0,19.48,10.52Z"/><path class="cls-2" d="M25.24,9.6l.1,1a2.51,2.51,0,0,1,.92-.82,2.79,2.79,0,0,1,1.29-.29,2.28,2.28,0,0,1,1.27.35,2.08,2.08,0,0,1,.8,1,2.69,2.69,0,0,1,.92-1,2.47,2.47,0,0,1,1.34-.37,2.19,2.19,0,0,1,1.78.78,3.54,3.54,0,0,1,.66,2.33V17H33V12.56A2.48,2.48,0,0,0,32.6,11a1.38,1.38,0,0,0-1.12-.45,1.42,1.42,0,0,0-1.12.48,2,2,0,0,0-.5,1.21V17H28.5V12.56A2.48,2.48,0,0,0,28.12,11,1.36,1.36,0,0,0,27,10.56a1.85,1.85,0,0,0-1,.25,1.77,1.77,0,0,0-.61.71V17H24V9.6Z"/><path class="cls-2" d="M35.93,13.23a4.09,4.09,0,0,1,.89-2.7,3,3,0,0,1,2.42-1.07,3,3,0,0,1,2.43,1.06,4.09,4.09,0,0,1,.89,2.71v.15a4.08,4.08,0,0,1-.89,2.71,3.3,3.3,0,0,1-4.84,0,4,4,0,0,1-.9-2.7Zm1.35.15a3.52,3.52,0,0,0,.5,1.94,1.78,1.78,0,0,0,2.93,0,3.52,3.52,0,0,0,.5-1.94v-.15a3.5,3.5,0,0,0-.5-1.93,1.65,1.65,0,0,0-1.47-.78,1.61,1.61,0,0,0-1.46.78,3.5,3.5,0,0,0-.5,1.93Z"/><path class="cls-2" d="M46.38,14.82l.12.52h0l.13-.52,1.7-5.22h1.37L47,17H46L43.25,9.6h1.38Z"/><path class="cls-2" d="M53.78,17.14a3.13,3.13,0,0,1-2.49-1,3.94,3.94,0,0,1-.89-2.68v-.3a3.83,3.83,0,0,1,.92-2.63,2.87,2.87,0,0,1,2.24-1,2.69,2.69,0,0,1,2.23.93,3.81,3.81,0,0,1,.74,2.45v.71H51.8l0,0a3,3,0,0,0,.49,1.8,1.71,1.71,0,0,0,1.51.7,3.43,3.43,0,0,0,1.2-.2,2.87,2.87,0,0,0,.88-.53l.53.87a3.36,3.36,0,0,1-1,.65A4.24,4.24,0,0,1,53.78,17.14Zm-.22-6.62a1.44,1.44,0,0,0-1.16.55,2.54,2.54,0,0,0-.57,1.39l0,0h3.33v-.11a2.18,2.18,0,0,0-.39-1.33A1.45,1.45,0,0,0,53.56,10.52Z"/><path class="cls-2" d="M66.85,14.43H63.1L62.21,17H60.84L64.43,7h1.15l3.51,10H67.72Zm-3.36-1.12h3L65,9h0Z"/><path class="cls-2" d="M71.85,17H70.5V6.33h1.35Z"/><path class="cls-2" d="M75.28,17H73.93V6.33h1.35Z"/></g></g></svg>