<svg xmlns="http://www.w3.org/2000/svg" viewBox="0 0 92.35 24"><defs><style>.cls-1{fill:#404050;}.cls-2{fill:#fff;}</style></defs><g id="Layer_2" data-name="Layer 2"><g id="VECTOR"><rect class="cls-1" width="92.35" height="24" rx="6"/><path class="cls-2" d="M33.69,14.49a1.5,1.5,0,0,0-.49-1.14,4.14,4.14,0,0,0-1.71-.78,5.7,5.7,0,0,1-2.36-1.1,2.33,2.33,0,0,1-.86-1.84,2.46,2.46,0,0,1,.92-2,3.54,3.54,0,0,1,2.38-.78,3.52,3.52,0,0,1,2.51.89A2.71,2.71,0,0,1,35,9.87l0,.05H33.67a1.83,1.83,0,0,0-.59-1.41A2.11,2.11,0,0,0,31.57,8a2.07,2.07,0,0,0-1.45.46,1.54,1.54,0,0,0-.5,1.19,1.32,1.32,0,0,0,.55,1.08,5.09,5.09,0,0,0,1.79.76,5.18,5.18,0,0,1,2.29,1.15A2.52,2.52,0,0,1,35,14.47a2.33,2.33,0,0,1-.95,1.94,3.92,3.92,0,0,1-2.47.73,4.21,4.21,0,0,1-2.55-.81A2.44,2.44,0,0,1,28,14.17v0H29.3A1.68,1.68,0,0,0,30,15.58a2.68,2.68,0,0,0,1.61.51,2.46,2.46,0,0,0,1.51-.43A1.41,1.41,0,0,0,33.69,14.49Z"/><path class="cls-2" d="M39.82,17.14a3.15,3.15,0,0,1-2.49-1,3.94,3.94,0,0,1-.89-2.68v-.3a3.83,3.83,0,0,1,.92-2.63,2.89,2.89,0,0,1,2.25-1,2.66,2.66,0,0,1,2.22.93,3.75,3.75,0,0,1,.75,2.45v.71H37.84l0,0a3,3,0,0,0,.5,1.8,1.7,1.7,0,0,0,1.5.7,3.35,3.35,0,0,0,1.2-.2,2.92,2.92,0,0,0,.89-.53l.52.87a3.19,3.19,0,0,1-1,.65A4.34,4.34,0,0,1,39.82,17.14Zm-.21-6.62a1.46,1.46,0,0,0-1.17.55,2.61,2.61,0,0,0-.56,1.39v0h3.34v-.11a2.12,2.12,0,0,0-.4-1.33A1.43,1.43,0,0,0,39.61,10.52Z"/><path class="cls-2" d="M45.58,17H44.24V6.33h1.34Z"/><path class="cls-2" d="M50.69,17.14a3.13,3.13,0,0,1-2.49-1,3.94,3.94,0,0,1-.89-2.68v-.3a3.83,3.83,0,0,1,.92-2.63,2.87,2.87,0,0,1,2.24-1,2.69,2.69,0,0,1,2.23.93,3.81,3.81,0,0,1,.74,2.45v.71H48.71l0,0a3,3,0,0,0,.49,1.8,1.71,1.71,0,0,0,1.51.7,3.43,3.43,0,0,0,1.2-.2,2.87,2.87,0,0,0,.88-.53l.53.87a3.36,3.36,0,0,1-1,.65A4.24,4.24,0,0,1,50.69,17.14Zm-.22-6.62a1.44,1.44,0,0,0-1.16.55,2.54,2.54,0,0,0-.57,1.39l0,0h3.33v-.11a2.18,2.18,0,0,0-.39-1.33A1.45,1.45,0,0,0,50.47,10.52Z"/><path class="cls-2" d="M58,16.09A1.59,1.59,0,0,0,59,15.67a1.28,1.28,0,0,0,.46-1h1.22l0,0a2.14,2.14,0,0,1-.82,1.7,3.14,3.14,0,0,1-4.38-.32,4.11,4.11,0,0,1-.84-2.64v-.28a4.05,4.05,0,0,1,.85-2.63A2.89,2.89,0,0,1,58,9.46a2.82,2.82,0,0,1,2,.77,2.45,2.45,0,0,1,.76,1.88l0,0H59.5A1.65,1.65,0,0,0,59.06,11,1.43,1.43,0,0,0,58,10.52a1.58,1.58,0,0,0-1.45.77,3.67,3.67,0,0,0-.45,1.87v.28a3.63,3.63,0,0,0,.45,1.88A1.54,1.54,0,0,0,58,16.09Z"/><path class="cls-2" d="M64.25,7.82V9.6h1.4v1h-1.4v4.49a1,1,0,0,0,.21.73A.81.81,0,0,0,65,16l.25,0,.24-.06.19.92a1.18,1.18,0,0,1-.45.2,2.32,2.32,0,0,1-.58.08,1.73,1.73,0,0,1-1.3-.49,2.15,2.15,0,0,1-.49-1.56V10.6H61.73v-1H62.9V7.82Z"/><path class="cls-2" d="M75.9,14.43H72.15L71.26,17H69.89L73.48,7h1.15l3.52,10H76.77Zm-3.36-1.12h3L74.07,9h0Z"/><path class="cls-2" d="M80.9,17H79.55V6.33H80.9Z"/><path class="cls-2" d="M84.33,17H83V6.33h1.35Z"/></g></g></svg>