<svg xmlns="http://www.w3.org/2000/svg" viewBox="0 0 58.48 32"><defs><style>.cls-1{fill:#0e0e11;opacity:0.88;}.cls-2{fill:#e3e3e4;}</style></defs><g id="Layer_2" data-name="Layer 2"><g id="TEXT"><rect class="cls-1" width="58.48" height="32" rx="4"/><path class="cls-2" d="M14.84,19.23H11.15l-.77,2.46H8l3.84-11.38h2.33L18,21.69H15.61Zm-3.13-1.78h2.57l-1.26-4h0Z"/><path class="cls-2" d="M26.7,17.7a5,5,0,0,1-.84,3,2.88,2.88,0,0,1-2.44,1.13,2.52,2.52,0,0,1-1.29-.31,2.66,2.66,0,0,1-.94-.92L21,21.69H19.08V9.5h2.27v4.63a2.51,2.51,0,0,1,.88-.78,2.46,2.46,0,0,1,1.17-.27,2.81,2.81,0,0,1,2.46,1.21,5.6,5.6,0,0,1,.84,3.24Zm-2.27-.17a4.33,4.33,0,0,0-.37-2,1.26,1.26,0,0,0-1.23-.72,1.76,1.76,0,0,0-.9.22,1.56,1.56,0,0,0-.58.64v3.58a1.5,1.5,0,0,0,.58.59,1.94,1.94,0,0,0,.91.2,1.32,1.32,0,0,0,1.24-.62,3.68,3.68,0,0,0,.35-1.76Z"/><path class="cls-2" d="M27.77,17.38a4.52,4.52,0,0,1,1.05-3.09,3.68,3.68,0,0,1,2.93-1.21,3.69,3.69,0,0,1,2.93,1.2,4.51,4.51,0,0,1,1.07,3.1v.17a4.54,4.54,0,0,1-1.06,3.1,3.71,3.71,0,0,1-2.93,1.2,3.69,3.69,0,0,1-2.93-1.2,4.49,4.49,0,0,1-1.06-3.1Zm2.27.17a3.65,3.65,0,0,0,.41,1.85,1.4,1.4,0,0,0,1.31.7,1.37,1.37,0,0,0,1.29-.7,3.6,3.6,0,0,0,.41-1.85v-.17a3.54,3.54,0,0,0-.41-1.83,1.55,1.55,0,0,0-2.6,0A3.7,3.7,0,0,0,30,17.38Z"/><path class="cls-2" d="M42.31,20.44a2.84,2.84,0,0,1-1,1A2.86,2.86,0,0,1,37.83,21a4.4,4.4,0,0,1-.75-2.82v-4.9h2.27v4.92a2.75,2.75,0,0,0,.3,1.52,1.1,1.1,0,0,0,.94.41,2.28,2.28,0,0,0,.94-.18,1.54,1.54,0,0,0,.64-.52V13.23h2.28v8.46H42.56Z"/><path class="cls-2" d="M48.93,11.16v2.07h1.43v1.61H48.93v4.3a1,1,0,0,0,.2.7.74.74,0,0,0,.55.21H50l.3-.07.19,1.65a4.39,4.39,0,0,1-.67.17,3.8,3.8,0,0,1-.7.06,2.41,2.41,0,0,1-1.82-.65,2.84,2.84,0,0,1-.64-2.05V14.84H45.42V13.23h1.23V11.16Z"/></g></g></svg>