<svg xmlns="http://www.w3.org/2000/svg" viewBox="0 0 32 32"><defs><style>.cls-1{fill:none;}.cls-2{fill:#fff;}</style></defs><g id="Layer_2" data-name="Layer 2"><g id="VECTOR"><rect class="cls-1" width="32" height="32"/><path class="cls-2" d="M21.93,20.1a1,1,0,0,0-.93-.64H11a1,1,0,0,0-.93.64,1,1,0,0,0,.26,1.1l5,4.54a1,1,0,0,0,1.34,0l5-4.54A1,1,0,0,0,21.93,20.1Z"/><path class="cls-2" d="M10.07,11.9a1,1,0,0,0,.93.64H21a1,1,0,0,0,.93-.64,1,1,0,0,0-.26-1.1l-5-4.54a1,1,0,0,0-1.34,0l-5,4.54A1,1,0,0,0,10.07,11.9Z"/></g></g></svg>