<svg xmlns="http://www.w3.org/2000/svg" viewBox="0 0 82.03 16"><defs><style>.cls-1{fill:#202028;}.cls-2{fill:#8f8f93;}</style></defs><g id="Layer_2" data-name="Layer 2"><g id="VECTOR"><rect class="cls-1" width="82.03" height="16" rx="4"/><path class="cls-2" d="M24.09,10.57h0l2-7H27.7v8.53H26.51V6h0l-2,6.15h-.81l-2-6.25h0v6.24H20.5V3.61h1.55Z"/><path class="cls-2" d="M32.4,12.14q-.07-.29-.12-.51a2.3,2.3,0,0,1-.05-.45,2.4,2.4,0,0,1-.67.78,1.55,1.55,0,0,1-.94.3,1.63,1.63,0,0,1-1.3-.5,2,2,0,0,1-.46-1.38A1.73,1.73,0,0,1,29.49,9a2.73,2.73,0,0,1,1.76-.51h1V7.8A1.44,1.44,0,0,0,32,6.9a1,1,0,0,0-1.42,0,1,1,0,0,0-.26.72H29.14v0a1.6,1.6,0,0,1,.58-1.3,2.21,2.21,0,0,1,1.59-.57,2.13,2.13,0,0,1,1.53.56,2.07,2.07,0,0,1,.59,1.58v2.94a5.27,5.27,0,0,0,0,.7,3.93,3.93,0,0,0,.15.68Zm-1.53-.79a1.34,1.34,0,0,0,.86-.3,1.42,1.42,0,0,0,.49-.73V9.19h-1a1.1,1.1,0,0,0-.86.35,1.2,1.2,0,0,0-.31.84,1.11,1.11,0,0,0,.21.71A.74.74,0,0,0,30.87,11.35Z"/><path class="cls-2" d="M36.25,4.22V5.8h1v.85h-1v3.77a1.21,1.21,0,0,0,.15.7.46.46,0,0,0,.39.21.58.58,0,0,0,.19,0,.84.84,0,0,0,.2-.05l.13.82a2,2,0,0,1-.81.18,1.33,1.33,0,0,1-1.07-.44,2.13,2.13,0,0,1-.38-1.4V6.65h-.84V5.8h.84V4.22Z"/><path class="cls-2" d="M40.32,11.36a.94.94,0,0,0,.74-.34,1.39,1.39,0,0,0,.29-.92h1.07l0,0a2,2,0,0,1-.61,1.51,2.06,2.06,0,0,1-1.51.61,2.09,2.09,0,0,1-1.81-.89,3.89,3.89,0,0,1-.64-2.28V8.87a3.9,3.9,0,0,1,.64-2.29,2.09,2.09,0,0,1,1.81-.9,2,2,0,0,1,1.55.65A2.3,2.3,0,0,1,42.44,8V8H41.35a1.74,1.74,0,0,0-.28-1,.89.89,0,0,0-.75-.39,1,1,0,0,0-1,.64,3.86,3.86,0,0,0-.3,1.63v.22a4,4,0,0,0,.29,1.63A1,1,0,0,0,40.32,11.36Z"/><path class="cls-2" d="M44.73,6.65a2.15,2.15,0,0,1,.66-.71,1.57,1.57,0,0,1,.88-.26,1.61,1.61,0,0,1,1.35.64,3.2,3.2,0,0,1,.48,1.94v3.88H46.91V8.25A2.48,2.48,0,0,0,46.66,7a.85.85,0,0,0-.75-.38,1.23,1.23,0,0,0-.7.2,1.39,1.39,0,0,0-.48.56v4.77h-1.2V3h1.2Z"/><path class="cls-2" d="M57.56,9.57v0a2.53,2.53,0,0,1-.7,2,2.79,2.79,0,0,1-2,.69,2.72,2.72,0,0,1-2.09-.84A3.33,3.33,0,0,1,52,9.06V6.7a3.39,3.39,0,0,1,.77-2.36,2.63,2.63,0,0,1,2.06-.85,2.9,2.9,0,0,1,2,.67,2.51,2.51,0,0,1,.71,2v0H56.42A1.93,1.93,0,0,0,56,4.83a1.52,1.52,0,0,0-1.19-.43A1.41,1.41,0,0,0,53.62,5a2.81,2.81,0,0,0-.43,1.69V9.06a2.84,2.84,0,0,0,.44,1.71,1.47,1.47,0,0,0,1.24.59A1.5,1.5,0,0,0,56,10.94a2,2,0,0,0,.39-1.37Z"/><path class="cls-2" d="M62.07,12.14q-.07-.29-.12-.51a3.47,3.47,0,0,1-.06-.45,2.5,2.5,0,0,1-.66.78,1.57,1.57,0,0,1-.94.3,1.67,1.67,0,0,1-1.31-.5,2,2,0,0,1-.45-1.38A1.73,1.73,0,0,1,59.16,9a2.7,2.7,0,0,1,1.75-.51h1V7.8a1.44,1.44,0,0,0-.26-.9,1,1,0,0,0-1.43,0,1,1,0,0,0-.25.72H58.81v0a1.62,1.62,0,0,1,.57-1.3A2.25,2.25,0,0,1,61,5.68a2.13,2.13,0,0,1,1.53.56,2.06,2.06,0,0,1,.58,1.58v2.94a5.24,5.24,0,0,0,.05.7,3.93,3.93,0,0,0,.15.68Zm-1.54-.79a1.33,1.33,0,0,0,.86-.3,1.44,1.44,0,0,0,.5-.73V9.19h-1a1.09,1.09,0,0,0-.86.35,1.2,1.2,0,0,0-.32.84,1.11,1.11,0,0,0,.22.71A.73.73,0,0,0,60.53,11.35Z"/><path class="cls-2" d="M67.39,10.54a.83.83,0,0,0-.25-.62,3.49,3.49,0,0,0-.94-.56,4.72,4.72,0,0,1-1.47-.8,1.43,1.43,0,0,1-.48-1.11,1.58,1.58,0,0,1,.59-1.25,2.25,2.25,0,0,1,1.53-.52,2.16,2.16,0,0,1,1.57.57,1.76,1.76,0,0,1,.58,1.37v0H67.36a1.15,1.15,0,0,0-.27-.77.88.88,0,0,0-.72-.33,1,1,0,0,0-.71.26.8.8,0,0,0-.26.59.74.74,0,0,0,.22.57,3.93,3.93,0,0,0,.94.54,4.25,4.25,0,0,1,1.5.81,1.54,1.54,0,0,1,.5,1.16A1.57,1.57,0,0,1,68,11.77a2.42,2.42,0,0,1-1.59.49,2.3,2.3,0,0,1-1.68-.59,1.81,1.81,0,0,1-.58-1.39v0h1.11a1.17,1.17,0,0,0,.35.89,1.24,1.24,0,0,0,.81.27,1.06,1.06,0,0,0,.74-.24A.8.8,0,0,0,67.39,10.54Z"/><path class="cls-2" d="M71.93,12.26a2.24,2.24,0,0,1-1.86-.86,3.64,3.64,0,0,1-.67-2.26V8.87a3.75,3.75,0,0,1,.67-2.29,2.09,2.09,0,0,1,1.75-.9,1.94,1.94,0,0,1,1.65.77A3.45,3.45,0,0,1,74,8.51v.67H70.59a3.16,3.16,0,0,0,.35,1.58,1.15,1.15,0,0,0,1.07.6,2.33,2.33,0,0,0,.87-.15,2.48,2.48,0,0,0,.68-.46l.38.74a2.56,2.56,0,0,1-.83.55A3,3,0,0,1,71.93,12.26ZM71.82,6.6a.92.92,0,0,0-.82.48,2.68,2.68,0,0,0-.38,1.26h2.24V8.2A2.34,2.34,0,0,0,72.6,7,.85.85,0,0,0,71.82,6.6Z"/></g></g></svg>