<svg xmlns="http://www.w3.org/2000/svg" viewBox="0 0 89.37 32"><defs><style>.cls-1{fill:#0e0e11;opacity:0.88;}.cls-2{fill:#ff80bf;}</style></defs><g id="Layer_2" data-name="Layer 2"><g id="TEXT"><rect class="cls-1" width="89.37" height="32" rx="4"/><path class="cls-2" d="M32,21.69V10.31h4a4.75,4.75,0,0,1,3.44,1.33,4.6,4.6,0,0,1,1.35,3.42V17a4.56,4.56,0,0,1-1.35,3.41A4.7,4.7,0,0,1,36,21.69Zm2.28-9.62v7.87H36a2.22,2.22,0,0,0,1.81-.84A3.28,3.28,0,0,0,38.47,17v-1.9a3.24,3.24,0,0,0-.69-2.14A2.22,2.22,0,0,0,36,12.07Z"/><path class="cls-2" d="M42,17.38a4.53,4.53,0,0,1,1.06-3.09A3.66,3.66,0,0,1,46,13.08,3.73,3.73,0,0,1,49,14.28,4.5,4.5,0,0,1,50,17.38v.17A4.49,4.49,0,0,1,49,20.65,3.69,3.69,0,0,1,46,21.85a3.73,3.73,0,0,1-2.94-1.2A4.54,4.54,0,0,1,42,17.55Zm2.28.17a3.65,3.65,0,0,0,.4,1.85,1.41,1.41,0,0,0,1.32.7,1.37,1.37,0,0,0,1.29-.7,3.7,3.7,0,0,0,.41-1.85v-.17a3.65,3.65,0,0,0-.41-1.83A1.4,1.4,0,0,0,46,14.84a1.36,1.36,0,0,0-1.29.71,3.7,3.7,0,0,0-.41,1.83Z"/><path class="cls-2" d="M53.51,13.23l.11,1.22a3,3,0,0,1,1-1A2.74,2.74,0,0,1,56,13.08a2.52,2.52,0,0,1,2,.82,3.91,3.91,0,0,1,.72,2.61v5.18H56.47V16.52a2,2,0,0,0-.32-1.29,1.18,1.18,0,0,0-.95-.38,2,2,0,0,0-.89.19,1.84,1.84,0,0,0-.64.53v6.12H51.39V13.23Z"/><path class="cls-2" d="M65.44,21.69a5.46,5.46,0,0,1-.21-.61,4.53,4.53,0,0,1-.13-.66,3.16,3.16,0,0,1-.93,1,2.34,2.34,0,0,1-1.38.4,2.87,2.87,0,0,1-2-.68A2.46,2.46,0,0,1,60,19.3a2.22,2.22,0,0,1,1-1.92,4.73,4.73,0,0,1,2.79-.68h1.28V16a1.32,1.32,0,0,0-.32-.94,1.23,1.23,0,0,0-.95-.34,1.25,1.25,0,0,0-.86.27,1,1,0,0,0-.3.74H60.44l0-.05a2.11,2.11,0,0,1,.93-1.84,4.06,4.06,0,0,1,2.59-.78,3.79,3.79,0,0,1,2.46.76,2.67,2.67,0,0,1,.94,2.2v3.49a6.6,6.6,0,0,0,.09,1.12,5.77,5.77,0,0,0,.29,1Zm-2.08-1.53a1.92,1.92,0,0,0,1.06-.29,1.6,1.6,0,0,0,.64-.69V18H63.78a1.52,1.52,0,0,0-1.1.36,1.19,1.19,0,0,0-.37.89.87.87,0,0,0,.28.68A1.08,1.08,0,0,0,63.36,20.16Z"/><path class="cls-2" d="M71.76,11.16v2.07h1.43v1.61H71.76v4.3a1,1,0,0,0,.21.7.72.72,0,0,0,.54.21h.31l.31-.07.18,1.65a4.59,4.59,0,0,1-.66.17,4,4,0,0,1-.71.06,2.41,2.41,0,0,1-1.82-.65,2.84,2.84,0,0,1-.63-2.05V14.84H68.25V13.23h1.24V11.16Z"/><path class="cls-2" d="M78,21.85A3.81,3.81,0,0,1,75,20.69a4.24,4.24,0,0,1-1.06-3v-.31a4.61,4.61,0,0,1,1-3.11,3.48,3.48,0,0,1,2.83-1.2,3.31,3.31,0,0,1,2.62,1,4.16,4.16,0,0,1,.91,2.81v1.18h-5l0,.05a2.27,2.27,0,0,0,.52,1.4,1.79,1.79,0,0,0,1.41.54,4.89,4.89,0,0,0,1.3-.15,6,6,0,0,0,1.1-.48l.62,1.41a4.44,4.44,0,0,1-1.38.69A6,6,0,0,1,78,21.85Zm-.15-7a1.24,1.24,0,0,0-1,.47,2.31,2.31,0,0,0-.45,1.25v0h2.78v-.17a2,2,0,0,0-.3-1.17A1.13,1.13,0,0,0,77.84,14.84Z"/><path class="cls-2" d="M16,24a1,1,0,0,1-.8-.4L8.93,15.24a.86.86,0,0,1-.1-.16A4.43,4.43,0,0,1,8,12.5a4.5,4.5,0,0,1,8-2.83,4.5,4.5,0,0,1,7.17,5.42l-.1.15L16.8,23.6A1,1,0,0,1,16,24Zm-5.37-9.82L16,21.33l5.37-7.16.1-.15A2.47,2.47,0,0,0,22,12.5a2.5,2.5,0,0,0-5,0,1,1,0,0,1-2,0,2.5,2.5,0,0,0-5,0A2.47,2.47,0,0,0,10.53,14,.54.54,0,0,1,10.63,14.18Z"/></g></g></svg>