<svg xmlns="http://www.w3.org/2000/svg" viewBox="0 0 784 32"><defs><style>.cls-1{fill:#bf6030;}.cls-2{fill:#fff;}.cls-3{fill:none;}</style></defs><g id="Layer_2" data-name="Layer 2"><g id="VECTOR"><rect class="cls-1" width="784" height="32" rx="8"/><path class="cls-2" d="M356.46,17h6a1,1,0,1,0,0-2h-6V9a1,1,0,0,0-2,0v6h-6a1,1,0,0,0-.7,1.69,1,1,0,0,0,.7.29h6v6a1,1,0,0,0,2,0Z"/><rect class="cls-3" x="347.53" y="8.06" width="15.88" height="15.88" transform="translate(371.47 -339.47) rotate(90)"/><path class="cls-2" d="M380.05,21.69h-1.54L373,13l0,0v8.67h-1.54V10.31H373L378.46,19h.05V10.31h1.54Z"/><path class="cls-2" d="M385.93,21.85a3.58,3.58,0,0,1-2.84-1.16,4.5,4.5,0,0,1-1-3.07v-.34a4.38,4.38,0,0,1,1.05-3,3.31,3.31,0,0,1,2.57-1.19,3.07,3.07,0,0,1,2.54,1.05,4.4,4.4,0,0,1,.85,2.81v.81h-5.41l0,0a3.47,3.47,0,0,0,.56,2.07,2,2,0,0,0,1.72.79,4.06,4.06,0,0,0,1.37-.22,3.12,3.12,0,0,0,1-.62l.6,1a3.72,3.72,0,0,1-1.19.74A4.79,4.79,0,0,1,385.93,21.85Zm-.24-7.56a1.71,1.71,0,0,0-1.34.62,2.94,2.94,0,0,0-.64,1.59v0h3.82v-.13a2.41,2.41,0,0,0-.46-1.52A1.62,1.62,0,0,0,385.69,14.29Z"/><path class="cls-2" d="M392.85,18.61l.2,1.09h0l.21-1.09L395,13.23h1.24l1.69,5.38.22,1.21h.05l.25-1.21,1.25-5.38h1.61l-2.45,8.46h-1.25l-1.67-5.15-.32-1.34h-.05l-.29,1.34-1.64,5.15h-1.24l-2.46-8.46h1.6Z"/><path class="cls-2" d="M408.52,16.76v4.93H407V10.32h3.9a4.34,4.34,0,0,1,2.85.83,3,3,0,0,1,1,2.4,2.54,2.54,0,0,1-.46,1.53,3.07,3.07,0,0,1-1.33,1,2.28,2.28,0,0,1,1.35,1,3.25,3.25,0,0,1,.41,1.69v1.07a3.48,3.48,0,0,0,.12.95,1.49,1.49,0,0,0,.4.69v.19h-1.58a1.22,1.22,0,0,1-.39-.78,6.26,6.26,0,0,1-.09-1.07v-1a2.06,2.06,0,0,0-.54-1.48,1.92,1.92,0,0,0-1.44-.56Zm0-1.21h2.2a2.86,2.86,0,0,0,1.88-.5,1.89,1.89,0,0,0,.57-1.51,1.92,1.92,0,0,0-.56-1.49,2.45,2.45,0,0,0-1.73-.53h-2.36Z"/><path class="cls-2" d="M422.23,20.44a2.83,2.83,0,0,1-1,1,2.77,2.77,0,0,1-1.45.37,2.69,2.69,0,0,1-2.15-.88,4.09,4.09,0,0,1-.78-2.75v-5h1.54v5a3.08,3.08,0,0,0,.4,1.86,1.48,1.48,0,0,0,1.24.51,2.56,2.56,0,0,0,1.36-.33,2.19,2.19,0,0,0,.81-.94v-6.1h1.54v8.46h-1.39Z"/><path class="cls-2" d="M427.57,21.69H426V9.5h1.54Z"/><path class="cls-2" d="M433.39,21.85a3.58,3.58,0,0,1-2.84-1.16,4.5,4.5,0,0,1-1-3.07v-.34a4.38,4.38,0,0,1,1.05-3,3.29,3.29,0,0,1,2.56-1.19,3.09,3.09,0,0,1,2.55,1.05,4.39,4.39,0,0,1,.84,2.81v.81h-5.4l0,0a3.47,3.47,0,0,0,.57,2.07,2,2,0,0,0,1.72.79,4.1,4.1,0,0,0,1.37-.22,3.12,3.12,0,0,0,1-.62l.6,1a3.72,3.72,0,0,1-1.19.74A4.83,4.83,0,0,1,433.39,21.85Zm-.25-7.56a1.69,1.69,0,0,0-1.33.62,2.94,2.94,0,0,0-.64,1.59v0H435v-.13a2.47,2.47,0,0,0-.46-1.52A1.64,1.64,0,0,0,433.14,14.29Z"/></g></g></svg>