<svg xmlns="http://www.w3.org/2000/svg" viewBox="0 0 32 32"><defs><style>.cls-1{fill:#101014;}.cls-2{fill:#e3e3e4;}</style></defs><g id="Layer_2" data-name="Layer 2"><g id="BL"><rect class="cls-1" width="32" height="32" rx="4"/><path class="cls-2" d="M22.67,14.67H21.16a5.58,5.58,0,0,0-.57-1.38l1.07-1.06a1.34,1.34,0,0,0-1.89-1.89l-1.06,1.07a5.58,5.58,0,0,0-1.38-.57V9.33a1.33,1.33,0,1,0-2.66,0v1.51a5.58,5.58,0,0,0-1.38.57l-1.06-1.07a1.34,1.34,0,0,0-1.89,1.89l1.07,1.06a5.58,5.58,0,0,0-.57,1.38H9.33a1.33,1.33,0,0,0,0,2.66h1.51a5.58,5.58,0,0,0,.57,1.38l-1.07,1.06a1.34,1.34,0,0,0,1.89,1.89l1.06-1.07a5.58,5.58,0,0,0,1.38.57v1.51a1.33,1.33,0,1,0,2.66,0V21.16a5.58,5.58,0,0,0,1.38-.57l1.06,1.07a1.34,1.34,0,0,0,1.89-1.89l-1.07-1.06a5.58,5.58,0,0,0,.57-1.38h1.51a1.33,1.33,0,0,0,0-2.66Zm-6.67,4A2.67,2.67,0,1,1,18.67,16,2.68,2.68,0,0,1,16,18.67Z"/></g></g></svg>