<svg xmlns="http://www.w3.org/2000/svg" viewBox="0 0 138.8 32"><defs><style>.cls-1{fill:#0e0e11;opacity:0.88;}.cls-2{fill:#e3e3e4;}</style></defs><g id="Layer_2" data-name="Layer 2"><g id="TEXT"><rect class="cls-1" width="138.8" height="32" rx="4"/><path class="cls-2" d="M16.82,17.92l0,0a3.57,3.57,0,0,1-1.11,2.85,4.51,4.51,0,0,1-3.15,1,4.37,4.37,0,0,1-3.3-1.31A4.74,4.74,0,0,1,8,17.13V14.88a4.86,4.86,0,0,1,1.22-3.41,4.21,4.21,0,0,1,3.22-1.32,4.83,4.83,0,0,1,3.25,1A3.51,3.51,0,0,1,16.85,14v.05H14.62a2.25,2.25,0,0,0-.53-1.63,2.18,2.18,0,0,0-1.63-.53,1.82,1.82,0,0,0-1.59.82,3.6,3.6,0,0,0-.58,2.13v2.27a3.48,3.48,0,0,0,.61,2.14,1.94,1.94,0,0,0,1.68.83,2,2,0,0,0,1.53-.53,2.38,2.38,0,0,0,.5-1.65Z"/><path class="cls-2" d="M20.59,14.3a3,3,0,0,1,1-.9,2.83,2.83,0,0,1,3.36.56,4.1,4.1,0,0,1,.75,2.71v5H23.4v-5a2.37,2.37,0,0,0-.32-1.4,1.14,1.14,0,0,0-.95-.41,2.31,2.31,0,0,0-.91.17,1.52,1.52,0,0,0-.63.48v6.19H18.31V9.5h2.28Z"/><path class="cls-2" d="M31,21.85a3.83,3.83,0,0,1-3-1.16,4.24,4.24,0,0,1-1.06-3v-.31a4.61,4.61,0,0,1,1-3.11,3.48,3.48,0,0,1,2.84-1.2,3.3,3.3,0,0,1,2.61,1,4.11,4.11,0,0,1,.91,2.81v1.18h-5l0,.05a2.22,2.22,0,0,0,.53,1.4,1.75,1.75,0,0,0,1.4.54,4.89,4.89,0,0,0,1.3-.15,5.75,5.75,0,0,0,1.1-.48l.62,1.41a4.49,4.49,0,0,1-1.37.69A6,6,0,0,1,31,21.85Zm-.15-7a1.26,1.26,0,0,0-1.06.47,2.31,2.31,0,0,0-.45,1.25l0,0h2.78v-.17a2,2,0,0,0-.31-1.17A1.12,1.12,0,0,0,30.89,14.84Z"/><path class="cls-2" d="M39.34,20.1a1.21,1.21,0,0,0,1.29-1.3h2.08l0,0A2.67,2.67,0,0,1,41.78,21a4,4,0,0,1-5.34-.34,4.56,4.56,0,0,1-1-3.06v-.24a4.56,4.56,0,0,1,1-3.06,3.55,3.55,0,0,1,2.88-1.21,3.5,3.5,0,0,1,2.49.89,3,3,0,0,1,.92,2.34l0,.05H40.63a1.69,1.69,0,0,0-.34-1.09,1.19,1.19,0,0,0-1-.43,1.29,1.29,0,0,0-1.25.7,3.86,3.86,0,0,0-.37,1.81v.24a3.85,3.85,0,0,0,.37,1.82A1.32,1.32,0,0,0,39.34,20.1Z"/><path class="cls-2" d="M47,18.15h-.58v3.54H44.11V9.5h2.28v6.91h.51l2-3.18h2.64l-2.75,3.86,3.12,4.6H49.32Z"/><path class="cls-2" d="M57.26,21.69V14.84H56V13.23h1.26V12.3a2.84,2.84,0,0,1,.82-2.19,3.23,3.23,0,0,1,2.31-.77,4,4,0,0,1,.59,0l.66.12-.2,1.7-.36-.06a2.62,2.62,0,0,0-.41,0,1.1,1.1,0,0,0-.84.3,1.24,1.24,0,0,0-.29.88v.93h1.63v1.61H59.54v6.85Z"/><path class="cls-2" d="M61.78,17.38a4.48,4.48,0,0,1,1.06-3.09,3.65,3.65,0,0,1,2.92-1.21,3.73,3.73,0,0,1,2.94,1.2,4.5,4.5,0,0,1,1.06,3.1v.17a4.49,4.49,0,0,1-1.06,3.1,4.18,4.18,0,0,1-5.86,0,4.54,4.54,0,0,1-1.06-3.1Zm2.28.17a3.65,3.65,0,0,0,.4,1.85,1.57,1.57,0,0,0,2.61,0,3.7,3.7,0,0,0,.41-1.85v-.17a3.54,3.54,0,0,0-.42-1.83,1.38,1.38,0,0,0-1.3-.71,1.36,1.36,0,0,0-1.29.71,3.59,3.59,0,0,0-.41,1.83Z"/><path class="cls-2" d="M75.6,15.2l-.84,0a1.48,1.48,0,0,0-.83.21,1.29,1.29,0,0,0-.5.6v5.71H71.15V13.23h2.12l.1,1.25a2.66,2.66,0,0,1,.77-1,1.71,1.71,0,0,1,1.09-.37,1.66,1.66,0,0,1,.32,0l.29.06Z"/><path class="cls-2" d="M90,10.31v7.45a3.76,3.76,0,0,1-1.28,3,5.57,5.57,0,0,1-6.59,0,3.77,3.77,0,0,1-1.26-3V10.31h2.29v7.45a2.32,2.32,0,0,0,.61,1.74,2.26,2.26,0,0,0,1.65.6,2.29,2.29,0,0,0,1.67-.6,2.32,2.32,0,0,0,.62-1.74V10.31Z"/><path class="cls-2" d="M99.42,17.7a4.83,4.83,0,0,1-.87,3,2.86,2.86,0,0,1-2.42,1.14A2.76,2.76,0,0,1,95,21.61a2.46,2.46,0,0,1-.88-.73v4.06H91.79V13.23h2.06l.13,1a2.79,2.79,0,0,1,.9-.85,2.44,2.44,0,0,1,1.23-.3,2.83,2.83,0,0,1,2.44,1.22,5.48,5.48,0,0,1,.87,3.23Zm-2.28-.17a4.17,4.17,0,0,0-.4-1.94,1.31,1.31,0,0,0-1.22-.74,1.74,1.74,0,0,0-.88.21,1.5,1.5,0,0,0-.57.6v3.71a1.35,1.35,0,0,0,.57.54,1.87,1.87,0,0,0,.9.19,1.3,1.3,0,0,0,1.21-.65,3.36,3.36,0,0,0,.39-1.75Z"/><path class="cls-2" d="M100.52,17.53a5.56,5.56,0,0,1,.86-3.23,2.83,2.83,0,0,1,2.44-1.22,2.4,2.4,0,0,1,1.14.27,2.73,2.73,0,0,1,.89.78V9.5h2.29V21.69h-2l-.19-1a2.86,2.86,0,0,1-1,.89,2.44,2.44,0,0,1-1.25.31,2.86,2.86,0,0,1-2.42-1.14,4.89,4.89,0,0,1-.86-3Zm2.27.17a3.4,3.4,0,0,0,.38,1.74,1.29,1.29,0,0,0,1.22.64,1.85,1.85,0,0,0,.86-.2,1.66,1.66,0,0,0,.6-.58V15.7a1.82,1.82,0,0,0-.6-.63,1.68,1.68,0,0,0-.85-.22,1.29,1.29,0,0,0-1.22.74,4.18,4.18,0,0,0-.39,1.94Z"/><path class="cls-2" d="M114.88,21.69a4,4,0,0,1-.22-.61,4.53,4.53,0,0,1-.13-.66,3.16,3.16,0,0,1-.93,1,2.31,2.31,0,0,1-1.37.4,2.88,2.88,0,0,1-2-.68,2.46,2.46,0,0,1-.72-1.87,2.22,2.22,0,0,1,1-1.92,4.75,4.75,0,0,1,2.79-.68h1.28V16a1.28,1.28,0,0,0-.32-.94,1.23,1.23,0,0,0-1-.34,1.25,1.25,0,0,0-.86.27,1,1,0,0,0-.3.74h-2.19l0-.05a2.15,2.15,0,0,1,.94-1.84,4,4,0,0,1,2.58-.78,3.77,3.77,0,0,1,2.46.76,2.67,2.67,0,0,1,.94,2.2v3.49a6.6,6.6,0,0,0,.09,1.12,5.77,5.77,0,0,0,.29,1Zm-2.09-1.53a1.9,1.9,0,0,0,1.06-.29,1.54,1.54,0,0,0,.64-.69V18h-1.28a1.53,1.53,0,0,0-1.1.36,1.22,1.22,0,0,0-.37.89.9.9,0,0,0,.28.68A1.1,1.1,0,0,0,112.79,20.16Z"/><path class="cls-2" d="M121.19,11.16v2.07h1.43v1.61h-1.43v4.3a1,1,0,0,0,.21.7.73.73,0,0,0,.54.21h.32l.3-.07.19,1.65a4.39,4.39,0,0,1-.67.17,3.92,3.92,0,0,1-.71.06,2.39,2.39,0,0,1-1.81-.65,2.8,2.8,0,0,1-.64-2.05V14.84h-1.23V13.23h1.23V11.16Z"/><path class="cls-2" d="M127.43,21.85a3.83,3.83,0,0,1-3-1.16,4.24,4.24,0,0,1-1.06-3v-.31a4.61,4.61,0,0,1,1-3.11,3.48,3.48,0,0,1,2.84-1.2,3.3,3.3,0,0,1,2.61,1,4.11,4.11,0,0,1,.91,2.81v1.18h-5l0,.05a2.22,2.22,0,0,0,.53,1.4,1.75,1.75,0,0,0,1.4.54A4.89,4.89,0,0,0,129,20a5.75,5.75,0,0,0,1.1-.48l.62,1.41a4.49,4.49,0,0,1-1.37.69A6,6,0,0,1,127.43,21.85Zm-.15-7a1.26,1.26,0,0,0-1.06.47,2.31,2.31,0,0,0-.45,1.25l0,0h2.78v-.17a2,2,0,0,0-.31-1.17A1.12,1.12,0,0,0,127.28,14.84Z"/></g></g></svg>