<svg xmlns="http://www.w3.org/2000/svg" viewBox="0 0 171.35 32"><defs><style>.cls-1{fill:#3060bf;}.cls-2{fill:#fff;}</style></defs><g id="Layer_2" data-name="Layer 2"><g id="VECTOR"><rect class="cls-1" width="171.35" height="32" rx="8"/><path class="cls-2" d="M8.29,16.7a1,1,0,0,0,1.42,0L15,11.4V23a1,1,0,1,0,2,0V11.4l5.3,5.3a1,1,0,0,0,1.42-1.42l-7-7a1.15,1.15,0,0,0-.33-.21.94.94,0,0,0-.76,0,.93.93,0,0,0-.33.21l-7,7A1,1,0,0,0,8.29,16.7Z"/><path class="cls-2" d="M33.54,16.76v4.93H32V10.32h3.89a4.31,4.31,0,0,1,2.85.83,3,3,0,0,1,1,2.4,2.61,2.61,0,0,1-.46,1.53,3.2,3.2,0,0,1-1.33,1,2.35,2.35,0,0,1,1.35,1,3.25,3.25,0,0,1,.41,1.69v1.07a3.49,3.49,0,0,0,.11.95,1.5,1.5,0,0,0,.41.69v.19H38.63a1.32,1.32,0,0,1-.39-.78,6.27,6.27,0,0,1-.08-1.07v-1a2.06,2.06,0,0,0-.54-1.48,1.93,1.93,0,0,0-1.45-.56Zm0-1.21h2.19a2.86,2.86,0,0,0,1.88-.5,1.86,1.86,0,0,0,.58-1.51,2,2,0,0,0-.56-1.49,2.46,2.46,0,0,0-1.74-.53H33.54Z"/><path class="cls-2" d="M47.25,20.44a2.85,2.85,0,0,1-1,1,3.05,3.05,0,0,1-3.6-.51,4.14,4.14,0,0,1-.77-2.75v-5h1.54v5a3.08,3.08,0,0,0,.4,1.86A1.46,1.46,0,0,0,45,20.6a2.52,2.52,0,0,0,1.35-.33,2.07,2.07,0,0,0,.81-.94v-6.1h1.54v8.46H47.35Z"/><path class="cls-2" d="M52.36,13.23l.11,1.26a3,3,0,0,1,1.06-1,3.12,3.12,0,0,1,3.56.43,3.51,3.51,0,0,1,.75,2.47v5.34H56.3V16.38a2.25,2.25,0,0,0-.44-1.58,1.72,1.72,0,0,0-1.34-.47,2.38,2.38,0,0,0-1.21.28,2.17,2.17,0,0,0-.79.8v6.28H51V13.23Z"/><path class="cls-2" d="M64.27,21.69V10.31H68a4.55,4.55,0,0,1,2.79.77,2.74,2.74,0,0,1,1,2.31,2.11,2.11,0,0,1-.45,1.32,2.77,2.77,0,0,1-1.2.88,2.7,2.7,0,0,1,1.77,1,3,3,0,0,1,.65,1.92,2.88,2.88,0,0,1-1,2.38,4.22,4.22,0,0,1-2.75.83Zm1.53-6.54h2.5a2.08,2.08,0,0,0,1.4-.47,1.7,1.7,0,0,0,.53-1.32A1.65,1.65,0,0,0,69.65,12,2.68,2.68,0,0,0,68,11.52H65.8Zm0,1.2v4.13h3A2.36,2.36,0,0,0,70.41,20,1.84,1.84,0,0,0,71,18.49,2,2,0,0,0,70.4,17a2.34,2.34,0,0,0-1.6-.62h-3Z"/><path class="cls-2" d="M74,17.38a4.64,4.64,0,0,1,1-3.09,3.38,3.38,0,0,1,2.75-1.21,3.43,3.43,0,0,1,2.78,1.21,4.64,4.64,0,0,1,1,3.09v.17a4.66,4.66,0,0,1-1,3.1,3.79,3.79,0,0,1-5.54,0,4.61,4.61,0,0,1-1-3.09Zm1.54.17a4,4,0,0,0,.57,2.22,2,2,0,0,0,3.35,0A4,4,0,0,0,80,17.55v-.17a4,4,0,0,0-.57-2.21,1.88,1.88,0,0,0-1.69-.88,1.83,1.83,0,0,0-1.66.88,4,4,0,0,0-.57,2.21Z"/><path class="cls-2" d="M85.38,11.2v2H87v1.15H85.38v5.13a1.16,1.16,0,0,0,.25.83.85.85,0,0,0,.65.25,1.77,1.77,0,0,0,.3,0l.27-.07.21,1.05a1.37,1.37,0,0,1-.5.23,2.63,2.63,0,0,1-.67.09,2,2,0,0,1-1.49-.56,2.47,2.47,0,0,1-.56-1.78V14.38H82.5V13.23h1.34v-2Z"/><path class="cls-2" d="M91.06,11.2v2h1.6v1.15h-1.6v5.13a1.11,1.11,0,0,0,.25.83.85.85,0,0,0,.65.25,1.55,1.55,0,0,0,.29,0l.28-.07.21,1.05a1.43,1.43,0,0,1-.51.23,2.5,2.5,0,0,1-.66.09,2,2,0,0,1-1.49-.56,2.47,2.47,0,0,1-.56-1.78V14.38H88.18V13.23h1.34v-2Z"/><path class="cls-2" d="M93.66,17.38a4.64,4.64,0,0,1,1-3.09,3.76,3.76,0,0,1,5.53,0,4.64,4.64,0,0,1,1,3.09v.17a4.66,4.66,0,0,1-1,3.1,3.79,3.79,0,0,1-5.54,0,4.61,4.61,0,0,1-1-3.09Zm1.54.17a4,4,0,0,0,.57,2.22,2,2,0,0,0,3.35,0,4,4,0,0,0,.57-2.22v-.17a4,4,0,0,0-.57-2.21,1.88,1.88,0,0,0-1.68-.88,1.85,1.85,0,0,0-1.67.88,4,4,0,0,0-.57,2.21Z"/><path class="cls-2" d="M104.5,13.23l.11,1.11a2.77,2.77,0,0,1,1-.93,3.14,3.14,0,0,1,1.48-.33,2.64,2.64,0,0,1,1.45.39,2.42,2.42,0,0,1,.91,1.17,3.21,3.21,0,0,1,1-1.14,2.79,2.79,0,0,1,1.53-.42,2.53,2.53,0,0,1,2,.88,4.09,4.09,0,0,1,.75,2.67v5.06h-1.54V16.62a2.76,2.76,0,0,0-.43-1.77,1.54,1.54,0,0,0-1.28-.52,1.62,1.62,0,0,0-1.28.55,2.4,2.4,0,0,0-.57,1.38v5.43h-1.55V16.62a2.75,2.75,0,0,0-.44-1.74,1.52,1.52,0,0,0-1.27-.55,2,2,0,0,0-1.15.29,1.79,1.79,0,0,0-.7.81v6.26h-1.54V13.23Z"/><path class="cls-2" d="M123.22,11.2v2h1.6v1.15h-1.6v5.13a1.11,1.11,0,0,0,.25.83.85.85,0,0,0,.65.25,1.77,1.77,0,0,0,.3,0l.27-.07.21,1.05a1.35,1.35,0,0,1-.51.23,2.5,2.5,0,0,1-.66.09,2,2,0,0,1-1.49-.56,2.47,2.47,0,0,1-.56-1.78V14.38h-1.34V13.23h1.34v-2Z"/><path class="cls-2" d="M125.83,17.38a4.64,4.64,0,0,1,1-3.09,3.78,3.78,0,0,1,5.54,0,4.64,4.64,0,0,1,1,3.09v.17a4.61,4.61,0,0,1-1,3.1,3.79,3.79,0,0,1-5.54,0,4.65,4.65,0,0,1-1-3.09Zm1.53.17a4,4,0,0,0,.57,2.22,2,2,0,0,0,3.36,0,4,4,0,0,0,.57-2.22v-.17a3.93,3.93,0,0,0-.58-2.21,2,2,0,0,0-3.35,0,4,4,0,0,0-.57,2.21Z"/><path class="cls-2" d="M147.42,11.52h-3.75V21.69h-1.54V11.52h-3.7V10.31h9Z"/><path class="cls-2" d="M147,17.38a4.64,4.64,0,0,1,1-3.09,3.38,3.38,0,0,1,2.75-1.21,3.43,3.43,0,0,1,2.78,1.21,4.64,4.64,0,0,1,1,3.09v.17a4.61,4.61,0,0,1-1,3.1,3.77,3.77,0,0,1-5.53,0,4.61,4.61,0,0,1-1-3.09Zm1.54.17a4,4,0,0,0,.57,2.22,2,2,0,0,0,3.35,0,4,4,0,0,0,.57-2.22v-.17a4,4,0,0,0-.57-2.21,1.89,1.89,0,0,0-1.69-.88,1.83,1.83,0,0,0-1.66.88,4,4,0,0,0-.57,2.21Z"/><path class="cls-2" d="M163.67,17.78a4.68,4.68,0,0,1-.87,2.95,2.9,2.9,0,0,1-2.42,1.12,3.45,3.45,0,0,1-1.37-.26,2.62,2.62,0,0,1-1-.79v4.14h-1.54V13.23h1.18l.24,1.1a2.77,2.77,0,0,1,1-.93,3.12,3.12,0,0,1,1.44-.32,2.8,2.8,0,0,1,2.44,1.24,5.67,5.67,0,0,1,.87,3.3Zm-1.54-.16a4.47,4.47,0,0,0-.56-2.37,1.86,1.86,0,0,0-1.67-.92,2,2,0,0,0-1.13.3,2.15,2.15,0,0,0-.76.82v4.09a2,2,0,0,0,1.91,1.11,1.9,1.9,0,0,0,1.65-.8,3.51,3.51,0,0,0,.56-2.07Z"/></g></g></svg>