<svg xmlns="http://www.w3.org/2000/svg" viewBox="0 0 122.33 32"><defs><style>.cls-1{fill:#208020;}.cls-2{fill:#fff;}</style></defs><g id="Layer_2" data-name="Layer 2"><g id="VECTOR"><rect class="cls-1" width="122.33" height="32" rx="8"/><path class="cls-2" d="M13.11,23.51h0a1.49,1.49,0,0,1-1.15-.58l-4.62-6a1.5,1.5,0,1,1,2.38-1.82l3.5,4.55L22.37,9a1.5,1.5,0,0,1,2.27,2L14.24,23A1.49,1.49,0,0,1,13.11,23.51Z"/><path class="cls-2" d="M40.57,10.31v7.56a3.69,3.69,0,0,1-1.22,2.93,4.64,4.64,0,0,1-3.14,1.05,4.36,4.36,0,0,1-3-1.06A3.7,3.7,0,0,1,32,17.87V10.31h1.54v7.56a2.73,2.73,0,0,0,.75,2,2.6,2.6,0,0,0,1.92.74,2.89,2.89,0,0,0,2-.74,2.67,2.67,0,0,0,.78-2V10.31Z"/><path class="cls-2" d="M44.18,13.23l.11,1.26a3,3,0,0,1,1.06-1,3.12,3.12,0,0,1,3.56.43,3.51,3.51,0,0,1,.75,2.47v5.34H48.12V16.38a2.25,2.25,0,0,0-.44-1.58,1.72,1.72,0,0,0-1.34-.47,2.38,2.38,0,0,0-1.21.28,2.17,2.17,0,0,0-.79.8v6.28H42.8V13.23Z"/><path class="cls-2" d="M56.68,19.41a1,1,0,0,0-.39-.82A3.72,3.72,0,0,0,54.83,18a6.23,6.23,0,0,1-2.3-.89,1.84,1.84,0,0,1-.8-1.55,2.25,2.25,0,0,1,.88-1.77,3.9,3.9,0,0,1,4.61,0,2.24,2.24,0,0,1,.85,1.82l0,.05H56.58a1.34,1.34,0,0,0-.48-1,2,2,0,0,0-2.43-.07,1.15,1.15,0,0,0-.4.87.93.93,0,0,0,.35.77,3.69,3.69,0,0,0,1.43.5,6,6,0,0,1,2.36.93,1.89,1.89,0,0,1,.81,1.57,2.25,2.25,0,0,1-.91,1.84,3.79,3.79,0,0,1-2.38.71A3.71,3.71,0,0,1,52.38,21a2.34,2.34,0,0,1-.88-1.91v-.05H53a1.43,1.43,0,0,0,.61,1.2,2.39,2.39,0,0,0,1.34.38,2.09,2.09,0,0,0,1.28-.35A1.07,1.07,0,0,0,56.68,19.41Z"/><path class="cls-2" d="M63.54,21.85a3.58,3.58,0,0,1-2.84-1.16,4.49,4.49,0,0,1-1-3.06v-.35a4.38,4.38,0,0,1,1-3,3.29,3.29,0,0,1,2.56-1.19,3.09,3.09,0,0,1,2.55,1.05,4.4,4.4,0,0,1,.85,2.81v.81H61.28l0,0a3.47,3.47,0,0,0,.56,2.07,2,2,0,0,0,1.72.79,4.1,4.1,0,0,0,1.37-.22,3.12,3.12,0,0,0,1-.62l.6,1a3.72,3.72,0,0,1-1.19.74A4.79,4.79,0,0,1,63.54,21.85Zm-.25-7.56a1.69,1.69,0,0,0-1.33.62,2.94,2.94,0,0,0-.64,1.59v0h3.82v-.13a2.41,2.41,0,0,0-.46-1.52A1.64,1.64,0,0,0,63.29,14.29Z"/><path class="cls-2" d="M70.11,21.69H68.57V9.5h1.54Z"/><path class="cls-2" d="M75.93,21.85a3.6,3.6,0,0,1-2.84-1.16,4.49,4.49,0,0,1-1-3.06v-.35a4.38,4.38,0,0,1,1.05-3,3.31,3.31,0,0,1,2.57-1.19,3.06,3.06,0,0,1,2.54,1.05,4.34,4.34,0,0,1,.85,2.81v.81H73.67l0,0a3.54,3.54,0,0,0,.56,2.07,2,2,0,0,0,1.72.79,4.06,4.06,0,0,0,1.37-.22,3,3,0,0,0,1-.62l.61,1a3.78,3.78,0,0,1-1.2.74A4.75,4.75,0,0,1,75.93,21.85Zm-.24-7.56a1.67,1.67,0,0,0-1.33.62,2.94,2.94,0,0,0-.65,1.59l0,0h3.81v-.13a2.47,2.47,0,0,0-.45-1.52A1.64,1.64,0,0,0,75.69,14.29Z"/><path class="cls-2" d="M84.22,20.65a1.83,1.83,0,0,0,1.24-.47A1.49,1.49,0,0,0,86,19h1.39l0,0A2.41,2.41,0,0,1,86.47,21a3.27,3.27,0,0,1-2.25.85,3.31,3.31,0,0,1-2.75-1.21,4.7,4.7,0,0,1-1-3V17.3a4.7,4.7,0,0,1,1-3,3.33,3.33,0,0,1,2.75-1.21,3.21,3.21,0,0,1,2.32.87,2.79,2.79,0,0,1,.87,2.15l0,0H86a1.84,1.84,0,0,0-.5-1.32,1.67,1.67,0,0,0-1.27-.54,1.78,1.78,0,0,0-1.65.88,4.05,4.05,0,0,0-.52,2.13v.33a4.19,4.19,0,0,0,.51,2.14A1.77,1.77,0,0,0,84.22,20.65Z"/><path class="cls-2" d="M91.41,11.2v2H93v1.15h-1.6v5.13a1.16,1.16,0,0,0,.24.83.89.89,0,0,0,.66.25,1.81,1.81,0,0,0,.29,0l.28-.07.21,1.05a1.35,1.35,0,0,1-.51.23,2.56,2.56,0,0,1-.66.09,2,2,0,0,1-1.5-.56,2.47,2.47,0,0,1-.55-1.78V14.38H88.52V13.23h1.35v-2Z"/><path class="cls-2" d="M104.72,18.76h-4.28l-1,2.93H97.85L102,10.31h1.32l4,11.38h-1.57Zm-3.84-1.29h3.4l-1.65-4.88h0Z"/><path class="cls-2" d="M110.42,21.69h-1.54V9.5h1.54Z"/><path class="cls-2" d="M114.33,21.69h-1.54V9.5h1.54Z"/></g></g></svg>