<svg xmlns="http://www.w3.org/2000/svg" viewBox="0 0 116.79 32"><defs><style>.cls-1{fill:#bf3030;}.cls-2{fill:#fff;}</style></defs><g id="Layer_2" data-name="Layer 2"><g id="VECTOR"><rect class="cls-1" width="116.79" height="32" rx="8"/><path class="cls-2" d="M102.68,16l5.72-5.72a1.33,1.33,0,1,0-1.88-1.89l-5.73,5.72L95.07,8.39a1.33,1.33,0,0,0-1.88,1.89L98.91,16l-5.72,5.72a1.33,1.33,0,1,0,1.88,1.89l5.72-5.72,5.73,5.72a1.33,1.33,0,0,0,1.88,0,1.34,1.34,0,0,0,0-1.89Z"/><path class="cls-2" d="M9.54,16.76v4.93H8V10.32h3.89a4.31,4.31,0,0,1,2.85.83,3,3,0,0,1,1,2.4,2.61,2.61,0,0,1-.46,1.53,3.2,3.2,0,0,1-1.33,1,2.35,2.35,0,0,1,1.35,1,3.25,3.25,0,0,1,.41,1.69v1.07a3.49,3.49,0,0,0,.11.95,1.5,1.5,0,0,0,.41.69v.19H14.63a1.32,1.32,0,0,1-.39-.78,6.27,6.27,0,0,1-.08-1.07v-1a2.06,2.06,0,0,0-.54-1.48,1.93,1.93,0,0,0-1.45-.56Zm0-1.21h2.19a2.86,2.86,0,0,0,1.88-.5,1.86,1.86,0,0,0,.58-1.51,2,2,0,0,0-.56-1.49,2.46,2.46,0,0,0-1.74-.53H9.54Z"/><path class="cls-2" d="M21.34,21.85a3.6,3.6,0,0,1-2.84-1.16,4.49,4.49,0,0,1-1-3.06v-.35a4.38,4.38,0,0,1,1.05-3,3.31,3.31,0,0,1,2.57-1.19,3.06,3.06,0,0,1,2.54,1.05,4.34,4.34,0,0,1,.85,2.81v.81H19.08l0,0a3.54,3.54,0,0,0,.56,2.07,2,2,0,0,0,1.72.79,4.06,4.06,0,0,0,1.37-.22,3.17,3.17,0,0,0,1-.62l.6,1a3.67,3.67,0,0,1-1.2.74A4.75,4.75,0,0,1,21.34,21.85Zm-.24-7.56a1.67,1.67,0,0,0-1.33.62,2.94,2.94,0,0,0-.65,1.59l0,0H23v-.13a2.47,2.47,0,0,0-.45-1.52A1.64,1.64,0,0,0,21.1,14.29Z"/><path class="cls-2" d="M27.68,13.23l.11,1.11a2.77,2.77,0,0,1,1.05-.93,3.14,3.14,0,0,1,1.48-.33,2.64,2.64,0,0,1,1.45.39,2.42,2.42,0,0,1,.91,1.17,3.07,3.07,0,0,1,1.06-1.14,2.73,2.73,0,0,1,1.52-.42,2.53,2.53,0,0,1,2,.88,4.09,4.09,0,0,1,.75,2.67v5.06H36.51V16.62a2.76,2.76,0,0,0-.43-1.77,1.54,1.54,0,0,0-1.28-.52,1.64,1.64,0,0,0-1.28.55A2.4,2.4,0,0,0,33,16.26v5.43H31.4V16.62A2.75,2.75,0,0,0,31,14.88a1.52,1.52,0,0,0-1.27-.55,2,2,0,0,0-1.15.29,1.79,1.79,0,0,0-.7.81v6.26H26.3V13.23Z"/><path class="cls-2" d="M39.88,17.38a4.64,4.64,0,0,1,1-3.09,3.76,3.76,0,0,1,5.53,0,4.64,4.64,0,0,1,1,3.09v.17a4.61,4.61,0,0,1-1,3.1,3.79,3.79,0,0,1-5.54,0,4.61,4.61,0,0,1-1-3.09Zm1.54.17A4,4,0,0,0,42,19.77a2,2,0,0,0,3.35,0,4,4,0,0,0,.58-2.22v-.17a4,4,0,0,0-.58-2.21,2,2,0,0,0-3.35,0,4,4,0,0,0-.57,2.21Z"/><path class="cls-2" d="M51.81,19.2l.13.59H52l.15-.59,1.94-6h1.57l-3.11,8.46H51.38l-3.15-8.46h1.58Z"/><path class="cls-2" d="M60.25,21.85a3.6,3.6,0,0,1-2.84-1.16,4.49,4.49,0,0,1-1-3.06v-.35a4.38,4.38,0,0,1,1-3A3.31,3.31,0,0,1,60,13.08a3.07,3.07,0,0,1,2.54,1.05,4.34,4.34,0,0,1,.85,2.81v.81H58l0,0a3.54,3.54,0,0,0,.56,2.07,2,2,0,0,0,1.72.79,4.06,4.06,0,0,0,1.37-.22,3.12,3.12,0,0,0,1-.62l.6,1a3.72,3.72,0,0,1-1.19.74A4.79,4.79,0,0,1,60.25,21.85ZM60,14.29a1.71,1.71,0,0,0-1.34.62A2.94,2.94,0,0,0,58,16.5l0,0h3.81v-.13a2.47,2.47,0,0,0-.45-1.52A1.65,1.65,0,0,0,60,14.29Z"/><path class="cls-2" d="M75.19,18.76H70.91l-1,2.93H68.32l4.1-11.38h1.32l4,11.38H76.19Zm-3.84-1.29h3.4l-1.66-4.88h0Z"/><path class="cls-2" d="M80.89,21.69H79.35V9.5h1.54Z"/><path class="cls-2" d="M84.79,21.69H83.25V9.5h1.54Z"/></g></g></svg>