<svg xmlns="http://www.w3.org/2000/svg" viewBox="0 0 32 32"><defs><style>.cls-1{fill:#0e0e11;opacity:0.88;}.cls-2{fill:#e3e3e4;}</style></defs><g id="Layer_2" data-name="Layer 2"><g id="TEXT"><rect class="cls-1" width="32" height="32" rx="4"/><path class="cls-2" d="M14,19.4a4.36,4.36,0,0,1,.45-2.2,7.08,7.08,0,0,1,1.73-1.69,5.61,5.61,0,0,0,1.21-1.35,2.85,2.85,0,0,0,.46-1.6A2.17,2.17,0,0,0,17.35,11a1.94,1.94,0,0,0-1.49-.55,2,2,0,0,0-1.34.47A1.7,1.7,0,0,0,14,12.31H10.91l0-.06a3.7,3.7,0,0,1,1.36-3.16A5.65,5.65,0,0,1,15.86,8a5.46,5.46,0,0,1,3.77,1.22A4.17,4.17,0,0,1,21,12.52,4.36,4.36,0,0,1,20.2,15a7,7,0,0,1-2,1.94,2.69,2.69,0,0,0-.86,1,4,4,0,0,0-.2,1.4Zm3.14,4.44H14V21.16h3.15Z"/></g></g></svg>