<svg xmlns="http://www.w3.org/2000/svg" viewBox="0 0 171.35 32"><defs><style>.cls-1{fill:#3060bf;}.cls-2{fill:#fff;}</style></defs><g id="Layer_2" data-name="Layer 2"><g id="VECTOR"><rect class="cls-1" width="171.35" height="32" rx="8"/><path class="cls-2" d="M23.73,15.28a1,1,0,0,0-1.42,0L17,20.59V9a1,1,0,0,0-2,0V20.59l-5.3-5.31A1,1,0,1,0,8.29,16.7l7,7a.93.93,0,0,0,.33.21.94.94,0,0,0,.76,0,1.15,1.15,0,0,0,.33-.21l7-7A1,1,0,0,0,23.73,15.28Z"/><path class="cls-2" d="M33.56,16.76v4.93H32V10.32h3.89a4.34,4.34,0,0,1,2.85.83,3,3,0,0,1,1,2.4,2.61,2.61,0,0,1-.46,1.53,3.2,3.2,0,0,1-1.33,1,2.29,2.29,0,0,1,1.34,1,3.16,3.16,0,0,1,.41,1.69v1.07a3.48,3.48,0,0,0,.12.95,1.42,1.42,0,0,0,.41.69v.19H38.65a1.32,1.32,0,0,1-.39-.78,6.26,6.26,0,0,1-.09-1.07v-1a2.05,2.05,0,0,0-.53-1.48,1.94,1.94,0,0,0-1.45-.56Zm0-1.21h2.19a2.86,2.86,0,0,0,1.88-.5,1.89,1.89,0,0,0,.58-1.51,2,2,0,0,0-.56-1.49,2.46,2.46,0,0,0-1.74-.53H33.56Z"/><path class="cls-2" d="M47.26,20.44a2.74,2.74,0,0,1-2.46,1.41A2.71,2.71,0,0,1,42.64,21a4.09,4.09,0,0,1-.77-2.75v-5h1.54v5a3.17,3.17,0,0,0,.39,1.86,1.49,1.49,0,0,0,1.25.51,2.55,2.55,0,0,0,1.35-.33,2.07,2.07,0,0,0,.81-.94v-6.1h1.54v8.46H47.37Z"/><path class="cls-2" d="M52.38,13.23l.11,1.26a3,3,0,0,1,1.06-1,3.12,3.12,0,0,1,3.56.43,3.51,3.51,0,0,1,.75,2.47v5.34H56.32V16.38a2.25,2.25,0,0,0-.44-1.58,1.73,1.73,0,0,0-1.35-.47,2.37,2.37,0,0,0-1.2.28,2.09,2.09,0,0,0-.79.8v6.28H51V13.23Z"/><path class="cls-2" d="M72.24,11.52H68.49V21.69H67V11.52h-3.7V10.31h9Z"/><path class="cls-2" d="M71.83,17.38a4.69,4.69,0,0,1,1-3.09,3.78,3.78,0,0,1,5.54,0,4.64,4.64,0,0,1,1,3.09v.17a4.61,4.61,0,0,1-1,3.1,3.77,3.77,0,0,1-5.53,0,4.61,4.61,0,0,1-1-3.09Zm1.54.17a4.06,4.06,0,0,0,.56,2.22,2,2,0,0,0,3.36,0,4,4,0,0,0,.57-2.22v-.17a4,4,0,0,0-.57-2.21,1.89,1.89,0,0,0-1.69-.88,1.86,1.86,0,0,0-1.67.88,4.1,4.1,0,0,0-.56,2.21Z"/><path class="cls-2" d="M88.49,17.78a4.68,4.68,0,0,1-.87,2.95,2.9,2.9,0,0,1-2.42,1.12,3.42,3.42,0,0,1-1.37-.26,2.55,2.55,0,0,1-1-.79v4.14H81.29V13.23h1.18l.24,1.1a2.77,2.77,0,0,1,1-.93,3.12,3.12,0,0,1,1.44-.32,2.81,2.81,0,0,1,2.44,1.24,5.67,5.67,0,0,1,.87,3.3ZM87,17.62a4.47,4.47,0,0,0-.57-2.37,1.83,1.83,0,0,0-1.66-.92,2.08,2.08,0,0,0-1.14.3,2.2,2.2,0,0,0-.75.82v4.09a2,2,0,0,0,1.9,1.11,1.91,1.91,0,0,0,1.66-.8A3.59,3.59,0,0,0,87,17.78Z"/><path class="cls-2" d="M96.5,11.2v2h1.6v1.15H96.5v5.13a1.16,1.16,0,0,0,.24.83.89.89,0,0,0,.66.25,1.67,1.67,0,0,0,.29,0l.28-.07.21,1.05a1.52,1.52,0,0,1-.51.23,2.56,2.56,0,0,1-.66.09,2,2,0,0,1-1.5-.56A2.47,2.47,0,0,1,95,19.51V14.38H93.62V13.23H95v-2Z"/><path class="cls-2" d="M99.1,17.38a4.64,4.64,0,0,1,1-3.09,3.38,3.38,0,0,1,2.75-1.21,3.43,3.43,0,0,1,2.78,1.21,4.64,4.64,0,0,1,1,3.09v.17a4.66,4.66,0,0,1-1,3.1,3.79,3.79,0,0,1-5.54,0,4.61,4.61,0,0,1-1-3.09Zm1.54.17a4,4,0,0,0,.57,2.22,2,2,0,0,0,3.35,0,4,4,0,0,0,.57-2.22v-.17a4,4,0,0,0-.57-2.21,1.89,1.89,0,0,0-1.69-.88,1.83,1.83,0,0,0-1.66.88,4,4,0,0,0-.57,2.21Z"/><path class="cls-2" d="M112.74,21.69V10.31h3.71a4.51,4.51,0,0,1,2.79.77,2.75,2.75,0,0,1,1,2.31,2.11,2.11,0,0,1-.45,1.32,2.86,2.86,0,0,1-1.21.88,2.66,2.66,0,0,1,1.77,1,2.94,2.94,0,0,1,.65,1.92,2.87,2.87,0,0,1-1,2.38,4.24,4.24,0,0,1-2.75.83Zm1.54-6.54h2.49a2.06,2.06,0,0,0,1.4-.47,1.68,1.68,0,0,0,.54-1.32,1.65,1.65,0,0,0-.58-1.38,2.71,2.71,0,0,0-1.68-.46h-2.17Zm0,1.2v4.13h3a2.37,2.37,0,0,0,1.64-.52,1.88,1.88,0,0,0,.58-1.47,2,2,0,0,0-.6-1.52,2.32,2.32,0,0,0-1.6-.62h-3Z"/><path class="cls-2" d="M122.48,17.38a4.69,4.69,0,0,1,1-3.09,3.78,3.78,0,0,1,5.54,0,4.64,4.64,0,0,1,1,3.09v.17a4.61,4.61,0,0,1-1,3.1,3.77,3.77,0,0,1-5.53,0,4.61,4.61,0,0,1-1-3.09Zm1.54.17a4.06,4.06,0,0,0,.56,2.22,2,2,0,0,0,3.36,0,4,4,0,0,0,.57-2.22v-.17a3.93,3.93,0,0,0-.58-2.21,2,2,0,0,0-3.35,0,4.1,4.1,0,0,0-.56,2.21Z"/><path class="cls-2" d="M133.86,11.2v2h1.6v1.15h-1.6v5.13a1.11,1.11,0,0,0,.25.83.85.85,0,0,0,.65.25,1.77,1.77,0,0,0,.3,0l.27-.07.21,1.05a1.35,1.35,0,0,1-.51.23,2.5,2.5,0,0,1-.66.09,2,2,0,0,1-1.49-.56,2.47,2.47,0,0,1-.56-1.78V14.38H131V13.23h1.34v-2Z"/><path class="cls-2" d="M139.54,11.2v2h1.6v1.15h-1.6v5.13a1.16,1.16,0,0,0,.24.83.87.87,0,0,0,.65.25,1.77,1.77,0,0,0,.3,0l.27-.07.21,1.05a1.37,1.37,0,0,1-.5.23,2.63,2.63,0,0,1-.67.09,2,2,0,0,1-1.49-.56,2.47,2.47,0,0,1-.55-1.78V14.38h-1.35V13.23H138v-2Z"/><path class="cls-2" d="M142.14,17.38a4.69,4.69,0,0,1,1-3.09,3.78,3.78,0,0,1,5.54,0,4.64,4.64,0,0,1,1,3.09v.17a4.61,4.61,0,0,1-1,3.1,3.77,3.77,0,0,1-5.53,0,4.61,4.61,0,0,1-1-3.09Zm1.54.17a4.06,4.06,0,0,0,.56,2.22,2,2,0,0,0,3.36,0,4,4,0,0,0,.57-2.22v-.17a3.93,3.93,0,0,0-.58-2.21,2,2,0,0,0-3.35,0,4.1,4.1,0,0,0-.56,2.21Z"/><path class="cls-2" d="M153,13.23l.11,1.11a2.92,2.92,0,0,1,1-.93,3.19,3.19,0,0,1,1.48-.33,2.6,2.6,0,0,1,1.45.39,2.31,2.31,0,0,1,.91,1.17A3.23,3.23,0,0,1,159,13.5a2.79,2.79,0,0,1,1.53-.42,2.53,2.53,0,0,1,2,.88,4.09,4.09,0,0,1,.75,2.67v5.06h-1.54V16.62a2.76,2.76,0,0,0-.43-1.77,1.56,1.56,0,0,0-1.28-.52,1.62,1.62,0,0,0-1.28.55,2.34,2.34,0,0,0-.57,1.38v5.43H156.7V16.62a2.82,2.82,0,0,0-.44-1.74,1.53,1.53,0,0,0-1.27-.55,2.06,2.06,0,0,0-1.16.29,1.83,1.83,0,0,0-.69.81v6.26H151.6V13.23Z"/></g></g></svg>