<svg xmlns="http://www.w3.org/2000/svg" viewBox="0 0 69.75 32"><defs><style>.cls-1{fill:#0e0e11;opacity:0.88;}.cls-2{fill:#e3e3e4;}</style></defs><g id="Layer_2" data-name="Layer 2"><g id="TEXT"><rect class="cls-1" width="69.75" height="32" rx="4"/><path class="cls-2" d="M10.28,19.94h5.1v1.75H8V10.31h2.28Z"/><path class="cls-2" d="M19,11.21H16.72V9.5H19Zm0,10.48H16.72V13.23H19Z"/><path class="cls-2" d="M24.39,20.1a1.22,1.22,0,0,0,1.3-1.3h2.07l0,0a2.67,2.67,0,0,1-1,2.15,3.6,3.6,0,0,1-2.44.86,3.6,3.6,0,0,1-2.9-1.2,4.56,4.56,0,0,1-1-3.06v-.24a4.56,4.56,0,0,1,1-3.06,3.55,3.55,0,0,1,2.88-1.21,3.52,3.52,0,0,1,2.5.89,3,3,0,0,1,.91,2.34l0,.05H25.69a1.7,1.7,0,0,0-.35-1.09,1.17,1.17,0,0,0-1-.43,1.29,1.29,0,0,0-1.25.7,3.86,3.86,0,0,0-.37,1.81v.24a3.85,3.85,0,0,0,.37,1.82A1.32,1.32,0,0,0,24.39,20.1Z"/><path class="cls-2" d="M32.76,21.85a3.81,3.81,0,0,1-2.95-1.16,4.24,4.24,0,0,1-1.06-3v-.31a4.61,4.61,0,0,1,1-3.11,3.46,3.46,0,0,1,2.83-1.2,3.31,3.31,0,0,1,2.62,1,4.16,4.16,0,0,1,.91,2.81v1.18h-5l0,.05a2.34,2.34,0,0,0,.53,1.4,1.77,1.77,0,0,0,1.4.54A4.84,4.84,0,0,0,34.3,20a5.82,5.82,0,0,0,1.11-.48L36,20.88a4.44,4.44,0,0,1-1.38.69A6,6,0,0,1,32.76,21.85Zm-.15-7a1.26,1.26,0,0,0-1.06.47,2.48,2.48,0,0,0-.45,1.25l0,0H33.9v-.17a2,2,0,0,0-.3-1.17A1.14,1.14,0,0,0,32.61,14.84Z"/><path class="cls-2" d="M39.66,13.23l.1,1.22a3,3,0,0,1,1-1,2.68,2.68,0,0,1,1.38-.36,2.5,2.5,0,0,1,2,.82,3.91,3.91,0,0,1,.72,2.61v5.18H42.61V16.52a2,2,0,0,0-.32-1.29,1.16,1.16,0,0,0-.94-.38,2.13,2.13,0,0,0-.9.19,1.84,1.84,0,0,0-.64.53v6.12H37.53V13.23Z"/><path class="cls-2" d="M51.12,19.34a.78.78,0,0,0-.36-.64,3.57,3.57,0,0,0-1.35-.47,5.38,5.38,0,0,1-2.25-.9,2,2,0,0,1-.77-1.63,2.35,2.35,0,0,1,.92-1.86,3.7,3.7,0,0,1,2.45-.76,4,4,0,0,1,2.57.76,2.27,2.27,0,0,1,.93,1.91l0,.05H51a1.1,1.1,0,0,0-.33-.83,1.33,1.33,0,0,0-1-.32,1.28,1.28,0,0,0-.86.27.83.83,0,0,0-.32.67.76.76,0,0,0,.33.64,3.76,3.76,0,0,0,1.35.44,5.57,5.57,0,0,1,2.31.92,2,2,0,0,1,.76,1.67,2.21,2.21,0,0,1-1,1.86,4.18,4.18,0,0,1-2.58.73A3.91,3.91,0,0,1,47.11,21a2.4,2.4,0,0,1-.93-1.95V19h2.09a1.16,1.16,0,0,0,.44,1,1.82,1.82,0,0,0,1.11.31,1.55,1.55,0,0,0,1-.25A.83.83,0,0,0,51.12,19.34Z"/><path class="cls-2" d="M58.38,21.85a3.82,3.82,0,0,1-3-1.16,4.24,4.24,0,0,1-1.06-3v-.31a4.61,4.61,0,0,1,1-3.11,3.48,3.48,0,0,1,2.84-1.2,3.3,3.3,0,0,1,2.61,1,4.11,4.11,0,0,1,.91,2.81v1.18h-5l0,.05a2.27,2.27,0,0,0,.52,1.4,1.79,1.79,0,0,0,1.41.54,4.89,4.89,0,0,0,1.3-.15,6,6,0,0,0,1.1-.48l.62,1.41a4.49,4.49,0,0,1-1.37.69A6,6,0,0,1,58.38,21.85Zm-.15-7a1.26,1.26,0,0,0-1.06.47,2.31,2.31,0,0,0-.45,1.25v0h2.79v-.17a2,2,0,0,0-.31-1.17A1.12,1.12,0,0,0,58.23,14.84Z"/></g></g></svg>