<svg xmlns="http://www.w3.org/2000/svg" viewBox="0 0 104.28 32"><defs><style>.cls-1{fill:#205024;}.cls-2{fill:#fff;}</style></defs><g id="Layer_2" data-name="Layer 2"><g id="VECTOR"><rect class="cls-1" width="104.28" height="32" rx="8"/><path class="cls-2" d="M22,17.5H10a1.5,1.5,0,0,1,0-3H22a1.5,1.5,0,0,1,0,3Z"/><path class="cls-2" d="M38.5,18.82a1.71,1.71,0,0,0-.55-1.3,4.66,4.66,0,0,0-2-.89,6.47,6.47,0,0,1-2.7-1.26,2.66,2.66,0,0,1-1-2.1,2.8,2.8,0,0,1,1-2.23,4.09,4.09,0,0,1,2.72-.89,4,4,0,0,1,2.86,1,3.1,3.1,0,0,1,1,2.38l0,0H38.49a2.11,2.11,0,0,0-.68-1.6,2.44,2.44,0,0,0-1.73-.63,2.35,2.35,0,0,0-1.65.52,1.75,1.75,0,0,0-.58,1.36,1.51,1.51,0,0,0,.63,1.24,5.83,5.83,0,0,0,2,.87,5.91,5.91,0,0,1,2.62,1.31A2.87,2.87,0,0,1,40,18.8,2.67,2.67,0,0,1,39,21a4.53,4.53,0,0,1-2.83.83,4.85,4.85,0,0,1-2.91-.92A2.8,2.8,0,0,1,32,18.46l0-.05h1.47a1.92,1.92,0,0,0,.81,1.66,3.11,3.11,0,0,0,1.83.58,2.8,2.8,0,0,0,1.73-.49A1.6,1.6,0,0,0,38.5,18.82Z"/><path class="cls-2" d="M45.49,21.85a3.6,3.6,0,0,1-2.84-1.16,4.49,4.49,0,0,1-1-3.06v-.35a4.38,4.38,0,0,1,1-3,3.31,3.31,0,0,1,2.57-1.19,3.06,3.06,0,0,1,2.54,1.05,4.34,4.34,0,0,1,.85,2.81v.81h-5.4l0,0a3.54,3.54,0,0,0,.56,2.07,2,2,0,0,0,1.72.79,4.06,4.06,0,0,0,1.37-.22,3.17,3.17,0,0,0,1-.62l.6,1a3.67,3.67,0,0,1-1.2.74A4.75,4.75,0,0,1,45.49,21.85Zm-.24-7.56a1.69,1.69,0,0,0-1.33.62,2.94,2.94,0,0,0-.65,1.59l0,0H47.1v-.13a2.47,2.47,0,0,0-.45-1.52A1.64,1.64,0,0,0,45.25,14.29Z"/><path class="cls-2" d="M52.07,21.69H50.53V9.5h1.54Z"/><path class="cls-2" d="M57.89,21.85a3.58,3.58,0,0,1-2.84-1.16,4.49,4.49,0,0,1-1-3.06v-.35a4.38,4.38,0,0,1,1-3,3.3,3.3,0,0,1,2.57-1.19,3.07,3.07,0,0,1,2.54,1.05A4.4,4.4,0,0,1,61,16.94v.81H55.63l0,0a3.47,3.47,0,0,0,.56,2.07,2,2,0,0,0,1.72.79,4.06,4.06,0,0,0,1.37-.22,3.12,3.12,0,0,0,1-.62l.6,1a3.72,3.72,0,0,1-1.19.74A4.79,4.79,0,0,1,57.89,21.85Zm-.24-7.56a1.71,1.71,0,0,0-1.34.62,2.94,2.94,0,0,0-.64,1.59v0H59.5v-.13A2.41,2.41,0,0,0,59,14.89,1.62,1.62,0,0,0,57.65,14.29Z"/><path class="cls-2" d="M66.18,20.65a1.84,1.84,0,0,0,1.24-.47A1.53,1.53,0,0,0,68,19h1.39l0,0A2.43,2.43,0,0,1,68.43,21a3.58,3.58,0,0,1-5-.36,4.65,4.65,0,0,1-1-3V17.3a4.65,4.65,0,0,1,1-3,3.31,3.31,0,0,1,2.75-1.21,3.19,3.19,0,0,1,2.31.87,2.79,2.79,0,0,1,.87,2.15v0H68a1.89,1.89,0,0,0-.5-1.32,1.67,1.67,0,0,0-1.27-.54,1.78,1.78,0,0,0-1.66.88A4.15,4.15,0,0,0,64,17.3v.33a4.19,4.19,0,0,0,.51,2.14A1.76,1.76,0,0,0,66.18,20.65Z"/><path class="cls-2" d="M73.36,11.2v2H75v1.15H73.36v5.13a1.16,1.16,0,0,0,.25.83.85.85,0,0,0,.65.25,1.77,1.77,0,0,0,.3,0l.27-.07L75,21.53a1.23,1.23,0,0,1-.5.23,2.63,2.63,0,0,1-.67.09,2,2,0,0,1-1.49-.56,2.47,2.47,0,0,1-.56-1.78V14.38H70.48V13.23h1.34v-2Z"/><path class="cls-2" d="M86.68,18.76H82.39l-1,2.93H79.81l4.1-11.38h1.32l4,11.38H87.68Zm-3.84-1.29h3.4l-1.66-4.88h0Z"/><path class="cls-2" d="M92.38,21.69H90.84V9.5h1.54Z"/><path class="cls-2" d="M96.28,21.69H94.75V9.5h1.53Z"/></g></g></svg>