<svg xmlns="http://www.w3.org/2000/svg" viewBox="0 0 784 32"><defs><style>.cls-1{fill:#bf48bf;}.cls-2{fill:#fff;}.cls-3{fill:none;}</style></defs><g id="Layer_2" data-name="Layer 2"><g id="VECTOR"><rect class="cls-1" width="784" height="32" rx="8"/><path class="cls-2" d="M354.08,17h6a1,1,0,1,0,0-2h-6V9a1,1,0,0,0-2,0v6h-6a1,1,0,0,0,0,2h6v6a1,1,0,0,0,2,0Z"/><rect class="cls-3" x="345.15" y="8.06" width="15.88" height="15.88" transform="translate(369.09 -337.09) rotate(90)"/><path class="cls-2" d="M377.73,21.69h-1.54L370.71,13l0,0v8.67h-1.54V10.31h1.54L376.14,19h.05V10.31h1.54Z"/><path class="cls-2" d="M383.6,21.85a3.56,3.56,0,0,1-2.83-1.16,4.5,4.5,0,0,1-1-3.07v-.34a4.38,4.38,0,0,1,1.05-3,3.29,3.29,0,0,1,2.56-1.19,3.09,3.09,0,0,1,2.55,1.05,4.39,4.39,0,0,1,.84,2.81v.81h-5.4l0,0a3.47,3.47,0,0,0,.57,2.07,2,2,0,0,0,1.71.79,4.12,4.12,0,0,0,1.38-.22,3.12,3.12,0,0,0,1-.62l.6,1a3.67,3.67,0,0,1-1.2.74A4.75,4.75,0,0,1,383.6,21.85Zm-.24-7.56a1.69,1.69,0,0,0-1.33.62,2.86,2.86,0,0,0-.64,1.59v0h3.81v-.13a2.47,2.47,0,0,0-.45-1.52A1.64,1.64,0,0,0,383.36,14.29Z"/><path class="cls-2" d="M390.53,18.61l.19,1.09h0l.2-1.09,1.69-5.38h1.24l1.69,5.38.22,1.21h.05l.25-1.21,1.25-5.38H399l-2.46,8.46h-1.24l-1.67-5.15-.32-1.34h0l-.29,1.34-1.65,5.15h-1.24l-2.45-8.46h1.6Z"/><path class="cls-2" d="M411,16.66h-4.8v5h-1.54V10.31h7.13v1.21H406.2v3.93H411Z"/><path class="cls-2" d="M414.94,11.07H413.4V9.5h1.54Zm0,10.62H413.4V13.23h1.54Z"/><path class="cls-2" d="M418.85,21.69h-1.54V9.5h1.54Z"/><path class="cls-2" d="M423.28,11.2v2h1.6v1.15h-1.6v5.13a1.16,1.16,0,0,0,.24.83.87.87,0,0,0,.66.25,1.81,1.81,0,0,0,.29,0l.28-.07.21,1.05a1.52,1.52,0,0,1-.51.23,2.57,2.57,0,0,1-.67.09,2,2,0,0,1-1.49-.56,2.47,2.47,0,0,1-.55-1.78V14.38h-1.35V13.23h1.35v-2Z"/><path class="cls-2" d="M429.74,21.85a3.58,3.58,0,0,1-2.84-1.16,4.5,4.5,0,0,1-1-3.07v-.34a4.38,4.38,0,0,1,1.05-3,3.31,3.31,0,0,1,2.57-1.19A3.07,3.07,0,0,1,432,14.13a4.4,4.4,0,0,1,.85,2.81v.81h-5.41l0,0a3.54,3.54,0,0,0,.56,2.07,2,2,0,0,0,1.72.79,4.06,4.06,0,0,0,1.37-.22,3.12,3.12,0,0,0,1-.62l.6,1a3.72,3.72,0,0,1-1.19.74A4.79,4.79,0,0,1,429.74,21.85Zm-.24-7.56a1.71,1.71,0,0,0-1.34.62,2.94,2.94,0,0,0-.64,1.59l0,0h3.81v-.13a2.47,2.47,0,0,0-.45-1.52A1.65,1.65,0,0,0,429.5,14.29Z"/><path class="cls-2" d="M438.7,14.59l-.79,0a1.71,1.71,0,0,0-1,.29,1.8,1.8,0,0,0-.64.81v6H434.7V13.23h1.37l.15,1.24a2.88,2.88,0,0,1,.89-1,2,2,0,0,1,1.21-.37,1.69,1.69,0,0,1,.33,0,1.33,1.33,0,0,1,.26.05Z"/></g></g></svg>